<?xml version="1.0" encoding="utf-8"?>
<!-- Generator: Adobe Illustrator 25.2.3, SVG Export Plug-In . SVG Version: 6.00 Build 0)  -->
<svg version="1.1" id="Layer_1" xmlns="http://www.w3.org/2000/svg" xmlns:xlink="http://www.w3.org/1999/xlink" x="0px" y="0px"
	 viewBox="0 0 1080 1080" style="enable-background:new 0 0 1080 1080;" xml:space="preserve">
<style type="text/css">
	.st0{fill:#FFFFFF;}
	.st1{fill:#E23137;}
	.st2{fill:#004980;}
	.st3{fill-rule:evenodd;clip-rule:evenodd;fill:#A2192E;}
	.st4{fill:#B01217;}
	.st5{fill:#FBF6F6;}
	.st6{fill:#001B3E;}
	.st7{clip-path:url(#SVGID_2_);fill:#CC004D;}
	.st8{clip-path:url(#SVGID_2_);}
	.st9{clip-path:url(#SVGID_4_);fill:#FFFFFF;}
	.st10{fill:#E2007E;}
	.st11{fill:#004451;}
	.st12{fill:#E41124;}
	.st13{fill:#CA1432;}
	.st14{clip-path:url(#SVGID_6_);fill:#BD1729;}
	.st15{fill:#FF0909;}
	.st16{fill:#0381FF;}
	.st17{fill:#002385;}
	.st18{fill:#00583C;}
	.st19{fill:#FDFDFD;}
	.st20{fill:#00FE00;}
	.st21{fill:#1D1F1B;}
	.st22{fill:#FEFEFE;}
	.st23{fill:#113B65;}
	.st24{fill:#F2CE31;}
</style>
<g>
	<path class="st20" d="M951.1,540.5C949.8,771.3,762,954.3,532.3,950.3c-220.1-3.9-403.5-181.2-403.4-410.4
		c0-233,190.5-413.5,417.3-410.2C766.3,133,950.1,310.6,951.1,540.5z M581.2,401.3c-32.4,0-64.7,0-97.7,0
		c-47.8,133.3-95.5,266.5-143.4,400c33.3,0,65.4,0,97.5,0c0.7-1.8,1.3-3.2,1.9-4.7c9.5-25.8,19-51.5,28.5-77.3
		c48.1,0,96.1,0,144.3,0c10.2,28.1,20,55.4,29.6,81.9c33.2,0,65.1,0,97.7,0c-48-133.9-95.7-267-143.3-399.9
		C590.7,401.3,585.9,401.3,581.2,401.3z M623,284.8c-0.1-44.7-36.8-81.1-81.3-80.8c-45,0.4-80.4,36.4-80.3,81.7
		c0.1,44.5,36.2,80.3,80.8,80.3C587,366,623.2,329.6,623,284.8z"/>
	<path class="st21" d="M581.2,401.3c4.8,0,9.5,0,15.1,0c47.6,132.9,95.3,265.9,143.3,399.9c-32.6,0-64.5,0-97.7,0
		c-9.6-26.5-19.5-53.8-29.6-81.9c-48.2,0-96.2,0-144.3,0c9-27.8,19-55.2,29.5-82.5c28,1.4,55.9,0.3,84.6,0.6
		c-1.8-9.8-5.5-17.7-8.5-25.8c-11.1-31-22.5-62-33.7-93c0.4-1.5,0.7-3.1,1.2-4.5C554.4,476.5,567.8,438.9,581.2,401.3z"/>
	<path class="st22" d="M497.5,636.9C487,664.1,477,691.5,468,719.3c-9.5,25.8-19,51.6-28.5,77.3c-0.5,1.5-1.2,2.9-1.9,4.7
		c-32.1,0-64.2,0-97.5,0c47.8-133.5,95.6-266.7,143.4-400c33,0,65.3,0,97.7,0c-13.4,37.6-26.7,75.2-40.1,112.8
		c-0.5,1.5-0.8,3-1.2,4.5C524.9,557.8,511,597.3,497.5,636.9z"/>
	<path class="st21" d="M623,284.8c0.1,44.8-36.1,81.2-80.8,81.2c-44.6,0-80.7-35.8-80.8-80.3c-0.1-45.3,35.3-81.3,80.3-81.7
		C586.2,203.7,622.9,240,623,284.8z M568.8,284.7c-0.1-14.9-12.1-26.8-26.8-26.7c-14.4,0.1-26.8,12.6-26.9,27
		c-0.1,14.3,12.5,26.9,26.8,27C557,312.2,568.9,300.1,568.8,284.7z"/>
	<path class="st20" d="M497.5,636.9c13.6-39.6,27.4-79.1,42.4-118.2c11.3,31,22.6,62,33.7,93c2.9,8.1,6.6,16,8.5,25.8
		C553.4,637.2,525.4,638.3,497.5,636.9z"/>
	<path class="st20" d="M568.8,284.7c0.1,15.4-11.7,27.5-26.9,27.4c-14.4-0.1-26.9-12.8-26.8-27c0.1-14.4,12.5-26.9,26.9-27
		C556.7,257.9,568.7,269.8,568.8,284.7z"/>
</g>
</svg>
