<?xml version="1.0" encoding="utf-8"?>
<!-- Generator: Adobe Illustrator 25.2.3, SVG Export Plug-In . SVG Version: 6.00 Build 0)  -->
<svg version="1.1" id="Layer_1" xmlns="http://www.w3.org/2000/svg" xmlns:xlink="http://www.w3.org/1999/xlink" x="0px" y="0px"
	 viewBox="0 0 1080 1080" style="enable-background:new 0 0 1080 1080;" xml:space="preserve">
<style type="text/css">
	.st0{fill:#FFFFFF;}
	.st1{fill:#E23137;}
	.st2{fill:#004980;}
	.st3{fill-rule:evenodd;clip-rule:evenodd;fill:#A2192E;}
	.st4{fill:#B01217;}
	.st5{fill:#FBF6F6;}
	.st6{fill:#001B3E;}
	.st7{clip-path:url(#SVGID_2_);fill:#CC004D;}
	.st8{clip-path:url(#SVGID_2_);}
	.st9{clip-path:url(#SVGID_4_);fill:#FFFFFF;}
	.st10{fill:#E2007E;}
	.st11{fill:#004451;}
	.st12{fill:#E41124;}
	.st13{fill:#CA1432;}
	.st14{clip-path:url(#SVGID_6_);fill:#BD1729;}
	.st15{fill:#FF0909;}
	.st16{fill:#0381FF;}
	.st17{fill:#002385;}
	.st18{fill:#00583C;}
	.st19{fill:#FDFDFD;}
	.st20{fill:#00FE00;}
	.st21{fill:#1D1F1B;}
	.st22{fill:#FEFEFE;}
	.st23{fill:#113B65;}
	.st24{fill:#F2CE31;}
</style>
<g>
	<polygon class="st0" points="470.8,909.2 473.9,924.8 514.9,928.7 660.4,855.4 776.6,760.6 862,661 921.3,575.6 940.4,553 
		945.9,527 928.1,496.7 904.7,369.3 862,302.8 807.4,234 757.6,193.7 726.8,174.7 686.5,165.2 681.7,191.3 736.2,250.6 781.3,302.8 
		800.3,376.3 819.3,466.4 812.2,511.5 783.4,525.3 776.7,553.2 788.6,579.5 757.6,675.1 686.5,753.5 641.4,803.2 579.7,848.3 
		508.6,881.6 475.4,895.7 	"/>
	<polygon class="st0" points="369.4,910.8 391.6,902.1 387.6,868.8 311.7,811.1 291.9,775.7 257.9,644.3 267.4,561.3 295.1,555.8 
		302.2,525.7 294.3,508.3 280.9,494.2 359.2,355 433.5,284.6 489.6,240.3 603.5,181.1 608.2,172.4 604.6,154.6 548.9,165.2 
		439,211.1 355.2,264.9 288,324.2 206.6,439.6 163.8,491 138.6,528.1 135.1,554.3 151.2,610.4 186.8,702 226.3,798.5 276.1,857.9 
		326,891 	"/>
	<path class="st1" d="M295.1,555.8c0,0-36,221,100,300.9l-13,30.3c0,0-161.3-89.2-143.1-330.5L295.1,555.8z"/>
	<path class="st1" d="M374.9,903.6c0,0-215.8-109.1-176.6-349.4h-63.2c0,0-38.4,269.6,228.8,374.8L374.9,903.6z"/>
	<path class="st1" d="M302.2,525.7c0,0,36.8-232.4,309.6-335.6l-3.5-17.8c0,0-296.5,86.6-363,353.4H302.2z"/>
	<path class="st1" d="M203.8,525.7c0,0,48.6-257.3,400.9-371.2l-2.4-16.6c0,0-368.8,49.9-461.3,387.8H203.8z"/>
	<polygon class="st1" points="403,836.5 354.4,950.4 433.9,921.8 	"/>
	<path class="st1" d="M784.9,524.2c0,0,35.7-221-100.2-300.9l13.3-30.3c0,0,161.3,89.3,143.1,330.5L784.9,524.2z"/>
	<path class="st1" d="M705.1,176.3c0,0,215.8,109.1,176.6,349.4h63.2c0,0,38.4-269.6-228.8-374.7L705.1,176.3z"/>
	<path class="st1" d="M777.8,554.3c0,0-36.8,232.4-309.6,335.6l3.5,17.9c0,0,296.5-86.6,363-353.4H777.8z"/>
	<path class="st1" d="M876.2,554.3c0,0-48.6,257.3-400.9,371.2l2.4,16.6c0,0,368.8-49.7,461.3-387.7H876.2z"/>
	<polygon class="st1" points="677,243.5 725.6,129.6 646.1,158.1 	"/>
	<path class="st2" d="M443,482.3l36.5,0c16.2,0.1,40.3,4.5,21.3,59.8c-10.5,30.8-31.9,62.9-62.8,62.9l-37,0L443,482.3z M352.7,637.3
		l78.7,0c60,0,95.3-57.9,109.1-98c12.2-35.5,17.9-89.3-43.3-89.3l-80.2-0.1L352.7,637.3z"/>
	<polygon class="st2" points="573.2,637.3 535.4,637.3 599.6,450 728.8,450.1 717.4,483.3 626.1,483.2 611.6,525.4 691.6,525.4 
		680.3,558.5 600.3,558.5 	"/>
</g>
</svg>
