<?xml version="1.0" encoding="utf-8"?>
<!-- Generator: Adobe Illustrator 25.2.3, SVG Export Plug-In . SVG Version: 6.00 Build 0)  -->
<svg version="1.1" id="Layer_1" xmlns="http://www.w3.org/2000/svg" xmlns:xlink="http://www.w3.org/1999/xlink" x="0px" y="0px"
	 viewBox="0 0 1080 1080" style="enable-background:new 0 0 1080 1080;" xml:space="preserve">
<style type="text/css">
	.st0{fill:#FFFFFF;}
	.st1{fill:#E23137;}
	.st2{fill:#004980;}
	.st3{fill-rule:evenodd;clip-rule:evenodd;fill:#A2192E;}
	.st4{fill:#B01217;}
	.st5{fill:#FBF6F6;}
	.st6{fill:#001B3E;}
	.st7{clip-path:url(#SVGID_2_);fill:#CC004D;}
	.st8{clip-path:url(#SVGID_2_);}
	.st9{clip-path:url(#SVGID_4_);fill:#FFFFFF;}
	.st10{fill:#E2007E;}
	.st11{fill:#004451;}
	.st12{fill:#E41124;}
	.st13{fill:#CA1432;}
	.st14{clip-path:url(#SVGID_6_);fill:#BD1729;}
	.st15{fill:#FF0909;}
	.st16{fill:#0381FF;}
	.st17{fill:#002385;}
	.st18{fill:#00583C;}
	.st19{fill:#FDFDFD;}
	.st20{fill:#00FE00;}
	.st21{fill:#1D1F1B;}
	.st22{fill:#FEFEFE;}
	.st23{fill:#113B65;}
	.st24{fill:#F2CE31;}
</style>
<g>
	<g>
		<defs>
			<rect id="SVGID_1_" x="138" y="138" width="804" height="804"/>
		</defs>
		<clipPath id="SVGID_2_">
			<use xlink:href="#SVGID_1_"  style="overflow:visible;"/>
		</clipPath>
		<rect x="138" y="138" class="st7" width="804" height="804"/>
		<g class="st8">
			<defs>
				<rect id="SVGID_3_" x="138" y="138" width="804" height="804"/>
			</defs>
			<clipPath id="SVGID_4_">
				<use xlink:href="#SVGID_3_"  style="overflow:visible;"/>
			</clipPath>
			<path class="st9" d="M805.2,535.7c0,145.2-118.5,270.3-265.9,270.3c-57.8,0-111.1-19.3-154.8-51.1l-37.8,38.5l-52.6-51.1l37-39.3
				c-36.3-46.7-57.8-105.2-57.8-167.4c0-145.2,118.5-270.3,265.9-270.3c59.2,0,114.1,20.7,158.5,54.1l40.7-42.2l54.1,54.8
				l-40.7,42.2C785.2,420.2,805.2,476.5,805.2,535.7 M405.2,626.1L625.9,395c-25.2-17-54.8-27.4-86.7-27.4
				c-88.9,0-160.7,80.7-160.7,168.1C378.5,568.3,388.2,599.4,405.2,626.1 M700,535.7c0-29.6-8.1-58.5-23-84.4l-220,228.1
				c24.4,15.6,51.8,24.4,82.2,24.4C628.1,703.9,700,623.9,700,535.7"/>
		</g>
	</g>
</g>
</svg>
