<?xml version="1.0" encoding="utf-8"?>
<!-- Generator: Adobe Illustrator 25.2.3, SVG Export Plug-In . SVG Version: 6.00 Build 0)  -->
<svg version="1.1" id="Layer_1" xmlns="http://www.w3.org/2000/svg" xmlns:xlink="http://www.w3.org/1999/xlink" x="0px" y="0px"
	 viewBox="0 0 1080 1080" style="enable-background:new 0 0 1080 1080;" xml:space="preserve">
<style type="text/css">
	.st0{fill:#FFFFFF;}
	.st1{fill:#E23137;}
	.st2{fill:#004980;}
	.st3{fill-rule:evenodd;clip-rule:evenodd;fill:#A2192E;}
	.st4{fill:#B01217;}
	.st5{fill:#FBF6F6;}
	.st6{fill:#001B3E;}
	.st7{clip-path:url(#SVGID_2_);fill:#CC004D;}
	.st8{clip-path:url(#SVGID_2_);}
	.st9{clip-path:url(#SVGID_4_);fill:#FFFFFF;}
	.st10{fill:#E2007E;}
	.st11{fill:#004451;}
	.st12{fill:#E41124;}
	.st13{fill:#CA1432;}
	.st14{clip-path:url(#SVGID_6_);fill:#BD1729;}
	.st15{fill:#FF0909;}
	.st16{fill:#0381FF;}
	.st17{fill:#002385;}
	.st18{fill:#00583C;}
	.st19{fill:#FDFDFD;}
	.st20{fill:#00FE00;}
	.st21{fill:#1D1F1B;}
	.st22{fill:#FEFEFE;}
	.st23{fill:#113B65;}
	.st24{fill:#F2CE31;}
</style>
<g>
	<path class="st4" d="M508.6,128.7c20.1,0,40.2,0,60.3,0c1.8,2.6,4.6,1.5,6.8,1.7C800.9,151.4,966,345.2,950.1,569.9
		c-16.6,234.3-228.5,408-461.2,378.1c-190.7-24.5-337.6-174.8-357.9-366.4c-0.3-2.5,0.7-5.5-2-7.5c0-23.3,0-46.6,0-69.9
		c2.7-1,1.6-3.5,1.9-5.3c1.1-7.5,1.8-15,2.9-22.4C163.6,290.3,312.2,150,499.8,130.7C502.8,130.4,506.3,131.7,508.6,128.7z
		 M575.9,812.5c-0.2,3.8-0.8,10.2-0.6,16.5c0.1,6.6,1.2,13.2,1.6,19.8c0.4,6.3,3.9,9.9,9.3,12.4c12.5,5.9,22.9,2.3,33.3-11.8
		c10.2-13.7,14.9-14,26.8-1.5c0.3,0.3,0.6,0.7,0.9,1c14.6,15.8,40.3,21.7,60.4,13.7c8.6-3.4,9.5-5.5,5.8-13.8
		c-10.8-24.2-21.8-48.2-32.4-72.5c-13.5-31-27.6-61.6-37.9-93.9c-1.1-3.3-1.8-5.4,2.4-7.5c68-32.8,108.9-88.9,135-157.7
		c1.5-4.1,0.6-6.8-1.8-9.9c-7.7-9.7-16.2-18.6-25.8-26.4c-29.1-24-62.5-40.1-97.4-53.6c-29.8-11.6-60.6-20.1-91.4-28.8
		c-8.9-2.5-14.7-7.5-17.7-16.4c-6.8-19.6-13.8-39.2-21.1-58.6c-2.3-6.1-0.3-7.4,5.2-8.8c22.6-5.7,44.7-12.7,66.2-21.8
		c11.9-5,19.7-13.8,24.8-25.2c6.2-13.6,3.4-26-7.9-35.8c-4.5-3.9-9.6-6.9-15.2-9c-17.1-6.5-34.9-8.8-53-9.3
		c-32.4-0.8-64.2,3.8-95.7,10.5c-32.6,6.9-64.7,15.7-95.7,27.9c-16.3,6.4-27.1,23.4-26,39.7c1.3,19.6,20.3,36.8,41.8,38.4
		c29.5,2.2,58.9,1,88.2-2.1c3.6-0.4,4.9,0.2,5,4c0.5,22,3.9,43.6,7.1,65.3c1.4,9.5-1.8,15.2-10.7,19.1c-12.1,5.4-23.8,11.6-35,18.7
		c-48.9,31.4-88.3,72.7-123.4,118.5c-2.9,3.7-1.8,6.4,0.2,9.8c21.9,38.1,51.8,68.2,90,90c48.8,27.8,102,38.7,157.6,40
		c12.3,0.3,12.4,0.2,15.3,12.4C571.9,740.2,574.9,774.9,575.9,812.5z"/>
	<path class="st5" d="M575.9,812.5c-1-37.6-4-72.4-12-106.5c-2.9-12.3-3-12.2-15.3-12.4c-55.6-1.3-108.8-12.2-157.6-40
		c-38.2-21.7-68.1-51.9-90-90c-2-3.4-3-6.1-0.2-9.8c35.1-45.8,74.5-87.1,123.4-118.5c11.2-7.2,22.9-13.3,35-18.7
		c8.8-3.9,12.1-9.6,10.7-19.1c-3.2-21.7-6.6-43.3-7.1-65.3c-0.1-3.8-1.4-4.3-5-4c-29.3,3.2-58.7,4.3-88.2,2.1
		c-21.5-1.6-40.5-18.8-41.8-38.4c-1.1-16.4,9.7-33.3,26-39.7c31-12.2,63.1-21,95.7-27.9c31.6-6.7,63.4-11.3,95.7-10.5
		c18.1,0.5,35.9,2.7,53,9.3c5.6,2.1,10.7,5.1,15.2,9c11.3,9.8,14.1,22.2,7.9,35.8c-5.2,11.4-12.9,20.1-24.8,25.2
		c-21.5,9.1-43.6,16.1-66.2,21.8c-5.5,1.4-7.5,2.7-5.2,8.8c7.4,19.4,14.3,39,21.1,58.6c3.1,8.8,8.9,13.9,17.7,16.4
		c30.8,8.6,61.5,17.2,91.4,28.8c34.8,13.5,68.3,29.6,97.4,53.6c9.5,7.9,18.1,16.7,25.8,26.4c2.5,3.1,3.4,5.9,1.8,9.9
		c-26.1,68.7-67,124.8-135,157.7c-4.3,2.1-3.5,4.2-2.4,7.5c10.3,32.2,24.5,62.9,37.9,93.9c10.6,24.3,21.6,48.3,32.4,72.5
		c3.7,8.3,2.8,10.4-5.8,13.8c-20.1,7.9-45.8,2.1-60.4-13.7c-0.3-0.3-0.6-0.7-0.9-1c-11.9-12.4-16.6-12.2-26.8,1.5
		c-10.4,14-20.8,17.7-33.3,11.8c-5.3-2.5-8.9-6.2-9.3-12.4c-0.4-6.6-1.4-13.2-1.6-19.8C575.1,822.7,575.7,816.3,575.9,812.5z
		 M535.5,680.8c1.6,0,3.2,0,4.8,0c3,0,6-0.1,8.9,0.2c5.8,0.6,7.7-1,5.7-7.1c-3-9.2-2.6-9.4-10.9-4.7c-2,1.1-3.9,2.3-6,3.4
		c-7.5,4.1-9.6,3.3-11-5.1c-6.2-35.6-10.9-71.3-8.5-107.6c0.2-3.2-0.3-5.7-2.6-8c-18.8-19.2-26.1-42.9-26.7-69.2
		c-0.6-26.8,6.6-51.9,16.8-76.3c4.3-10.4,6.2-11.1,15.6-5.1c43.9,27.8,64,68,62.3,119.5c-0.2,5.9,1.4,10.4,4.8,15
		c23.9,32.8,43.3,68.2,57.9,106.1c3.1,8.1,2.4,9.2-6.2,8.4c-6-0.6-7.5,1.5-5.3,6.9c0.4,0.8,0.8,1.7,0.9,2.6c0.7,5.5,3.1,5.9,7.8,3.5
		c13.3-6.8,25.9-14.5,37.3-24.1c38.5-32.1,64.2-73.1,83.3-118.8c2.1-5,1.2-8.4-1.9-12.3c-13.9-17.8-31.7-30.8-51-42
		c-45.4-26.4-94.5-43.5-145.2-55.7c-19.3-4.6-30.1-15.2-34.7-34c-4.7-19.1-11.1-37.6-17.8-56.1c-6-16.5-22.5-19.1-34-5.8
		c-6.1,7.1-6.2,15.3-5.2,23.9c2.4,22,4.7,44,6.8,66.1c0.9,9.3-2.5,15.3-10.5,18.8c-64.2,28.4-113.2,75.3-156.2,129.4
		c-2.6,3.3-2.5,5.6-0.3,9c23.8,36.8,54.5,66.2,93.4,86.7C447.8,669.2,490.7,678.8,535.5,680.8z M558.5,535.1
		c-13.8,6.5-20.2,17.5-23.8,30.4c-7.7,28.2-3.8,56.1,2.1,84c0.6,2.7,1.4,3.6,4.1,2c2.7-1.7,5.6-3.1,8.4-4.6
		c10.9-5.8,9.1-6.4,12.9,4.9c1.8,5.4,3.9,10.7,5.3,16.3c1.2,4.9,3.5,6.6,8.6,6.1c6.7-0.5,12.9,1.4,15.9,8.3
		c4.4,10.2,0.2,22.4-9.6,27.4c-3.2,1.6-4.2,3.1-3.3,6.7c3.2,12.4,4.2,25.2,5.2,37.9c2.4,28.9,3.3,57.9,3.7,86.9
		c0.1,5.1,2,6.8,6.7,7.2c5.9,0.4,10.8-1.4,14.7-5.8c1.8-2.1,3.2-4.4,4.6-6.8c9.2-15.1,24-15.9,34.4-1.9c2.7,3.7,5.5,7.3,8.9,10.4
		c10.4,9.2,22.3,11.6,35.7,8c4.4-1.2,5.2-3,3.4-7.2c-6.5-15.1-12.7-30.3-19-45.5c-14.3-34.3-28.6-68.7-42.8-103
		c-1.6-3.9-2.9-6.4-7.6-3.3c-3.6,2.4-7.6,1.7-10.4-1.9c-3.9-4.9-6.9-10.3-6.1-16.9c0.5-3.9,1-7.7,3.8-10.7c2.9-3.1,6.3-0.4,10.1-0.4
		c-1.6-5.9-2.7-11.2-4.4-16.4c-1.6-5-1.3-8,5-7.2c3.9,0.5,5.3-0.7,3.8-5c-9-25.3-19.9-49.5-36-71.2c-1.7-2.3-3.1-4.9-6-6.3
		c-3.5,11.7-11.9,14.4-21,7c-5.7-4.6-8.3-10.8-8.2-18C557.6,543,558.1,539.6,558.5,535.1z M408.9,316.5c12.7-0.8,27.9-1.8,43.2-2.9
		c2.5-0.2,5-1,7.5-0.9c4.5,0.3,6.8-2.2,9.4-5.4c12.5-15.6,30.6-17.9,46.4-5.8c2.5,1.9,4.6,1.7,7,1.1c21.4-4.8,42.6-10.2,63.1-17.8
		c8-3,14.9-8,20.1-14.9c6.1-8,6.1-16.4,0.5-24.7c-6-9-15.2-12.2-25.1-13.5c-30-3.8-60-5-90.1-1.8c-46.6,4.9-91.2,17.3-134.3,35.5
		c-5.4,2.3-4.6,4.2-1,7.6c7.4,6.8,10,15.6,9.3,25.4c-0.2,3.1-1.1,6.4-4.8,6.4c-3.9,0-4.1-3.2-4.2-6.4c-0.2-5.3-0.9-10.6-6-13.8
		c-1.8-1.1-3.9-2-5.8-0.9c-1.9,1.1-1.1,3.3-1,5c0.9,14.1,10,24.1,24.3,26.4C380.2,317.2,393.3,316,408.9,316.5z M571.7,510.2
		c0-8.5-0.9-16.9-2.7-25.1c-6.6-29.7-22.9-52.8-48.3-69.5c-2-1.3-5-4.9-6.6,0.7c-8.1,28.5-14.4,57.2-9.6,87c2.2,13.5,7,26,17.2,35.8
		c3.5,3.4,5.8,4.5,9.2-0.8c6.5-10.1,16.5-14.7,28.5-15C571.7,523,571.7,523.1,571.7,510.2z"/>
	<path class="st4" d="M535.5,680.8c-44.9-2-87.7-11.5-127.7-32.6c-38.9-20.5-69.6-49.9-93.4-86.7c-2.2-3.4-2.3-5.8,0.3-9
		c43-54.1,91.9-100.9,156.2-129.4c8-3.5,11.4-9.5,10.5-18.8c-2.1-22-4.4-44.1-6.8-66.1c-1-8.7-0.8-16.9,5.2-23.9
		c11.4-13.3,28-10.6,34,5.8c6.7,18.5,13.1,37,17.8,56.1c4.6,18.8,15.3,29.4,34.7,34c50.8,12.2,99.9,29.3,145.2,55.7
		c19.3,11.2,37.1,24.2,51,42c3.1,4,4,7.4,1.9,12.3c-19.1,45.7-44.9,86.7-83.3,118.8c-11.4,9.5-24,17.3-37.3,24.1
		c-4.6,2.4-7.1,2-7.8-3.5c-0.1-0.9-0.5-1.8-0.9-2.6c-2.3-5.4-0.7-7.5,5.3-6.9c8.6,0.8,9.3-0.3,6.2-8.4
		c-14.7-37.9-34-73.3-57.9-106.1c-3.4-4.7-4.9-9.1-4.8-15c1.7-51.4-18.5-91.7-62.3-119.5c-9.4-6-11.3-5.2-15.6,5.1
		c-10.2,24.4-17.4,49.5-16.8,76.3c0.6,26.2,7.9,49.9,26.7,69.2c2.3,2.4,2.8,4.9,2.6,8c-2.5,36.3,2.3,72,8.5,107.6
		c1.5,8.4,3.5,9.2,11,5.1c2-1.1,4-2.3,6-3.4c8.3-4.7,7.9-4.5,10.9,4.7c2,6.1,0.1,7.7-5.7,7.1c-2.9-0.3-5.9-0.1-8.9-0.2
		C538.7,680.8,537.1,680.8,535.5,680.8z"/>
	<path class="st4" d="M558.5,535.1c-0.4,4.5-0.9,7.9-0.9,11.3c-0.1,7.3,2.4,13.4,8.2,18c9.1,7.4,17.6,4.7,21-7c2.8,1.4,4.3,4,6,6.3
		c16.1,21.7,27,45.9,36,71.2c1.5,4.2,0.2,5.5-3.8,5c-6.4-0.8-6.6,2.2-5,7.2c1.7,5.1,2.8,10.5,4.4,16.4c-3.8,0-7.2-2.6-10.1,0.4
		c-2.9,3-3.4,6.9-3.8,10.7c-0.8,6.6,2.2,12,6.1,16.9c2.8,3.5,6.8,4.3,10.4,1.9c4.7-3.1,6-0.6,7.6,3.3c14.2,34.4,28.5,68.7,42.8,103
		c6.3,15.2,12.5,30.4,19,45.5c1.9,4.3,1,6.1-3.4,7.2c-13.4,3.6-25.3,1.2-35.7-8c-3.4-3-6.2-6.7-8.9-10.4
		c-10.4-14-25.2-13.1-34.4,1.9c-1.4,2.3-2.8,4.7-4.6,6.8c-3.8,4.4-8.7,6.2-14.7,5.8c-4.7-0.3-6.6-2.1-6.7-7.2
		c-0.5-29-1.3-58-3.7-86.9c-1-12.7-2-25.5-5.2-37.9c-0.9-3.6,0.1-5.1,3.3-6.7c9.9-5,14.1-17.2,9.6-27.4c-3-6.9-9.1-8.8-15.9-8.3
		c-5.1,0.4-7.4-1.3-8.6-6.1c-1.3-5.5-3.4-10.9-5.3-16.3c-3.8-11.3-2-10.6-12.9-4.9c-2.8,1.5-5.7,2.9-8.4,4.6c-2.6,1.6-3.5,0.7-4.1-2
		c-6-27.9-9.9-55.8-2.1-84C538.3,552.7,544.7,541.6,558.5,535.1z M650.3,800.3c-0.1-9.2-5.5-17.5-12.9-19.9
		c-10.8-3.5-22.4-0.7-28.1,6.9c-2.6,3.6-3.1,7.7-1.4,11.7c1.7,4.1,5.3,6.7,9.7,6.5c6.7-0.3,12.5,1.7,18.3,4.5
		C643.4,813.5,650.4,808.6,650.3,800.3z"/>
	<path class="st4" d="M408.9,316.5c-15.6-0.5-28.6,0.7-41.6-1.4c-14.3-2.3-23.4-12.3-24.3-26.4c-0.1-1.7-0.9-3.9,1-5
		c1.9-1.1,4-0.2,5.8,0.9c5.1,3.2,5.9,8.5,6,13.8c0.1,3.3,0.3,6.4,4.2,6.4c3.7,0,4.6-3.3,4.8-6.4c0.7-9.8-1.9-18.6-9.3-25.4
		c-3.7-3.4-4.4-5.3,1-7.6c43.1-18.2,87.7-30.6,134.3-35.5c30.2-3.2,60.2-2,90.1,1.8c9.9,1.3,19.1,4.6,25.1,13.5
		c5.6,8.3,5.6,16.8-0.5,24.7c-5.3,6.9-12.1,11.9-20.1,14.9c-20.6,7.6-41.8,13-63.1,17.8c-2.4,0.5-4.5,0.7-7-1.1
		c-15.8-12.1-34-9.8-46.4,5.8c-2.6,3.2-4.9,5.7-9.4,5.4c-2.5-0.1-5,0.7-7.5,0.9C436.8,314.7,421.6,315.7,408.9,316.5z"/>
	<path class="st4" d="M571.7,510.2c0,12.8,0,12.8-12.3,13c-12,0.2-22,4.9-28.5,15c-3.4,5.3-5.7,4.2-9.2,0.8
		c-10.2-9.8-15-22.3-17.2-35.8c-4.8-29.8,1.4-58.5,9.6-87c1.6-5.6,4.6-2,6.6-0.7c25.4,16.7,41.7,39.8,48.3,69.5
		C570.8,493.3,571.8,501.7,571.7,510.2z"/>
	<path class="st5" d="M650.3,800.3c0.1,8.3-6.9,13.2-14.4,9.6c-5.9-2.8-11.7-4.8-18.3-4.5c-4.3,0.2-7.9-2.4-9.7-6.5
		c-1.7-4-1.2-8.1,1.4-11.7c5.7-7.6,17.3-10.4,28.1-6.9C644.8,782.8,650.2,791.1,650.3,800.3z"/>
</g>
</svg>
