<?xml version="1.0" encoding="utf-8"?>
<!-- Generator: Adobe Illustrator 25.2.3, SVG Export Plug-In . SVG Version: 6.00 Build 0)  -->
<svg version="1.1" id="Layer_1" xmlns="http://www.w3.org/2000/svg" xmlns:xlink="http://www.w3.org/1999/xlink" x="0px" y="0px"
	 viewBox="0 0 1080 1080" style="enable-background:new 0 0 1080 1080;" xml:space="preserve">
<style type="text/css">
	.st0{fill:#FFFFFF;}
	.st1{fill:#E23137;}
	.st2{fill:#004980;}
	.st3{fill-rule:evenodd;clip-rule:evenodd;fill:#A2192E;}
	.st4{fill:#B01217;}
	.st5{fill:#FBF6F6;}
	.st6{fill:#001B3E;}
	.st7{clip-path:url(#SVGID_2_);fill:#CC004D;}
	.st8{clip-path:url(#SVGID_2_);}
	.st9{clip-path:url(#SVGID_4_);fill:#FFFFFF;}
	.st10{fill:#E2007E;}
	.st11{fill:#004451;}
	.st12{fill:#E41124;}
	.st13{fill:#CA1432;}
	.st14{clip-path:url(#SVGID_6_);fill:#BD1729;}
	.st15{fill:#FF0909;}
	.st16{fill:#0381FF;}
	.st17{fill:#002385;}
	.st18{fill:#00583C;}
	.st19{fill:#FDFDFD;}
	.st20{fill:#00FE00;}
	.st21{fill:#1D1F1B;}
	.st22{fill:#FEFEFE;}
	.st23{fill:#113B65;}
	.st24{fill:#F2CE31;}
</style>
<g>
	<path class="st12" d="M408.9,130.4c-56.6,10.7-129.7,61.1-172,118.5c-48.3,65.5-59.2,138.9-27.7,185.6c3.7,5.2,6.5,9.7,6.5,10.2
		c0,0.5-3.7,1.6-8.1,2.6c-34.5,6.8-50.1,57.9-35,115.1c5.5,20.9,22.4,54.3,38.4,75.2c26.9,36,74.6,73.1,110.4,85.6
		c86.1,30.3,216.9,0.8,268.1-60.3c7.6-9.1,12.8-11.7,41.8-21.9c42.5-14.9,57.2-22.7,76.7-42c17.2-17.2,29.8-39.9,34.7-63.4
		c3.7-18,3.7-92.9,0-110.7c-5.7-26.9-19.1-50.9-39.4-71c-16.2-15.7-24.5-21.4-54.3-36.3c-19.3-9.9-36.3-19.3-37.8-21.4
		c-8.4-12.3,41.2-35,77.5-35.2c47.2-0.3,109.4,29.5,123.5,59c6,12.8,3.7,24-9.9,46.5c-15.4,25.6-19.8,40.7-20.1,66.3
		c0,26.4,2.9,39.4,16.4,69.7c35,80.1,39.7,124.8,17.2,169.9c-11,21.7-47.5,57.4-55.6,54.3c-1.8-0.8-4.7-7.3-6.5-14.9
		c-4.4-20.6-14.4-39.4-27.9-54c-12-13.1-19.6-16.2-23.8-9.9c-1,1.8-6.8,14.6-12.8,28.4c-12.8,29.5-21.1,43.1-35.8,59
		c-36.8,39.9-113.3,69.2-181.9,69.7c-40.7,0.3-51.7-3.1-114.1-35.2c-48.3-25.1-69.4-33.7-83.8-33.7c-12.5,0-37.3-6.8-54.8-15.1
		c-31.6-14.6-61.3-55.3-72.3-98.4c-5.5-20.6-7.8-25.1-13.3-23c-10.7,3.9-12.5,61.1-2.6,92.4c15.4,50.4,58.2,94.7,114.3,118.8
		c15.1,6.3,22.2,11.7,48.3,38.6c59.2,59.8,97.6,84,157.4,98.7c23.5,5.7,82.7,4.2,110.1-2.9c65-16.7,128.2-55.1,159.7-97.1
		c15.4-20.6,21.7-32.4,29.2-55.9l5.7-18l17.2-5.7C823.3,751.8,887,703.8,915.2,661c43.1-65.5,53.2-167.6,24.3-240.9
		c-11.2-28.2-26.9-51.7-50.9-76.7c-18.3-18.8-23-25.3-23-31.6c-0.5-33.4-21.9-76.5-51.9-103.4c-45.9-41.8-111.2-48.5-160.8-16.7
		c-12.3,7.8-19.3,14.9-34.7,35c-5.2,6.8-11,5.7-11-1.8c0-9.4-15.7-36.8-29.5-51.9c-15.4-16.4-39.7-31.3-63.7-38.9
		C499.4,129.3,427.1,126.7,408.9,130.4z M504.1,208.9c28.2,7.3,58.2,29.2,74.1,54c8.4,13.1,9.9,19.8,5.5,22.7
		c-1.3,0.8-17,0.3-34.5-1.3c-36.3-3.4-65.3,0.3-66.8,8.4c-1,5,6.3,6.5,44.4,9.9c43.1,3.7,66,13.8,92.1,40.5
		c19.1,19.3,28.7,36.5,36.8,66.3c11.2,40.2,7.6,83.5-9.4,109.9c-9.9,15.4-23,25.1-53,38.9c-11.7,5.5-31.1,15.9-42.8,23.2
		c-30.3,19.1-42.3,22.4-73.3,20.9c-68.4-3.7-121.4-50.4-130-115.1c-3.1-23-11.7-12.3-15.4,19.1c-6.5,56.4,29,116.1,89.5,150.6
		l14.4,8.1l-10.2,4.7c-16.2,7.3-62.6,6.5-83.3-1.6c-42.5-16.4-72.6-47.2-85.1-87.4c-5.2-16.7-3.9-51.9,2.9-75.4
		c4.2-14.9,5.2-24.3,4.2-32.9l-1.6-12l12.3-3.4c19.1-4.7,35.5-18.3,44.1-36c6.8-13.8,7.6-18,9.1-55.6c1-30,2.9-44.6,6.8-56.6
		c13.1-39.4,42.3-76.2,72.6-90.6C436,204.5,473.6,201.1,504.1,208.9z"/>
	<path class="st12" d="M484.5,340.5c-13.1,3.7-18,7.3-18.3,12.5c0,2.1,1,2.6,26.9,12.3c20.4,8.1,32.1,20.1,36,37.6
		c4.7,21.1-2.3,38.4-24.5,59c-16.4,15.1-58.7,33.9-77,33.9c-12.5,0-25.8-7-29.8-15.9c-3.7-8.1-9.4-11.7-13.1-8.1
		c-4.4,4.4-5.5,23.5-2.1,32.4c5,12.8,19.8,27.1,35,33.7c18.8,8.4,52.7,8.6,69.2,0.3c6.5-3.1,16.4-5.7,23-5.7
		c16.4,0,43.6-9.9,55.9-20.4c23.2-19.8,32.6-46.5,30.3-85.6c-2.3-39.4-19.3-68.4-48-82C532.1,336.8,503.9,335.3,484.5,340.5z"/>
</g>
</svg>
