<?xml version="1.0" encoding="utf-8"?>
<!-- Generator: Adobe Illustrator 25.2.3, SVG Export Plug-In . SVG Version: 6.00 Build 0)  -->
<svg version="1.1" id="Layer_1" xmlns="http://www.w3.org/2000/svg" xmlns:xlink="http://www.w3.org/1999/xlink" x="0px" y="0px"
	 viewBox="0 0 1080 1080" style="enable-background:new 0 0 1080 1080;" xml:space="preserve">
<style type="text/css">
	.st0{fill:#FFFFFF;}
	.st1{fill:#E23137;}
	.st2{fill:#004980;}
	.st3{fill-rule:evenodd;clip-rule:evenodd;fill:#A2192E;}
	.st4{fill:#B01217;}
	.st5{fill:#FBF6F6;}
	.st6{fill:#001B3E;}
	.st7{clip-path:url(#SVGID_2_);fill:#CC004D;}
	.st8{clip-path:url(#SVGID_2_);}
	.st9{clip-path:url(#SVGID_4_);fill:#FFFFFF;}
	.st10{fill:#E2007E;}
	.st11{fill:#004451;}
	.st12{fill:#E41124;}
	.st13{fill:#CA1432;}
	.st14{clip-path:url(#SVGID_6_);fill:#BD1729;}
	.st15{fill:#FF0909;}
	.st16{fill:#0381FF;}
	.st17{fill:#002385;}
	.st18{fill:#00583C;}
	.st19{fill:#FDFDFD;}
	.st20{fill:#00FE00;}
	.st21{fill:#1D1F1B;}
	.st22{fill:#FEFEFE;}
	.st23{fill:#113B65;}
	.st24{fill:#F2CE31;}
</style>
<g>
	<path class="st18" d="M138,607.8c0-44.9,0-89.7,0-134.6c1.3-0.4,1.2-1.4,1.2-2.4c1.1-28,3.4-55.9,7.2-83.6
		c5.3-37.9,13-75.2,27.5-110.8c12.2-29.8,28.5-56.8,55-76.3c28.5-21,61-32.9,94.8-41.5c55.5-14.1,112.3-19,169.3-20.2
		c64.2-1.3,128.4-1.1,192.3,6.8c37.9,4.7,75.4,11.7,111.3,25.3c33.3,12.6,63.2,30,84.6,59.4c19.9,27.5,31.4,58.6,39.8,91.2
		c14,54.4,18.7,110,20,165.8c1.6,67,1.6,134.1-6.8,200.8c-4.7,37.6-11.8,74.6-25.3,110.1c-12.5,32.8-29.7,62.4-58.8,83.6
		c-30.3,22.1-64.9,33.9-100.9,42.4c-51.2,12.1-103.4,16.4-155.8,17.7c-66.4,1.6-132.8,1.7-198.9-6.8c-37.7-4.9-75-11.9-110.7-25.4
		c-27.3-10.3-52.9-23.6-73.3-45.3c-21.3-22.6-34.1-50-43.8-79c-16.7-50.3-23-102.4-26.6-155C139.6,622.6,140.4,615,138,607.8z
		 M555.4,770c29.7,0,51.6-1.3,73.5-3.7c12.9-1.4,25.7-3.5,38.5-6.1c14.3-3,28.4-6.5,42.2-11.3c9.6-3.3,11.8-7.5,10-17.3
		c-3.3-17.5-6.7-34.9-10-52.4c-2-10.6-6.2-13.6-16.7-11.2c-14.6,3.4-29.3,6.4-44,8.9c-33.9,5.6-67.8,8.3-102,3
		c-39.6-6.1-64.7-27.4-73.5-66.4c-11.3-49.4-10.8-99.3-1.3-148.9c8.4-43.9,34.8-67.2,79-73.1c32.7-4.4,65-1.8,97.2,4.4
		c15.9,3,31.5,7.4,47.3,10.9c7.8,1.7,11.8-1.1,13.4-8.8c3.6-17.8,7.1-35.7,10.5-53.5c2.4-12.8,0.3-16.1-12.1-20.3
		c-44.4-14.9-90.2-20.7-136.8-21.4c-34.5-0.5-68.8,1.2-102.4,9.7c-36.5,9.1-68.2,26.1-90.8,57.3c-16.7,23.1-25.7,49.4-31.3,77.1
		c-7.3,35.9-8,72.3-7.3,108.8c0.6,29.3,3.7,58.2,11,86.7c15.9,62.1,54,101.9,116.6,117.7C498,767.8,530.4,770,555.4,770z"/>
	<path class="st19" d="M555.4,770c-25-0.1-57.5-2.2-89.3-10.3c-62.6-15.8-100.8-55.6-116.6-117.7c-7.3-28.4-10.4-57.4-11-86.7
		c-0.8-36.5,0-72.8,7.3-108.8c5.6-27.7,14.6-54,31.3-77.1c22.6-31.2,54.3-48.1,90.8-57.3c33.6-8.4,67.9-10.2,102.4-9.7
		c46.6,0.7,92.4,6.6,136.8,21.4c12.5,4.2,14.5,7.5,12.1,20.3c-3.4,17.9-6.9,35.7-10.5,53.5c-1.5,7.7-5.6,10.5-13.4,8.8
		c-15.8-3.5-31.4-7.8-47.3-10.9c-32.2-6.1-64.5-8.8-97.2-4.4c-44.1,6-70.6,29.2-79,73.1c-9.5,49.6-9.9,99.6,1.3,148.9
		c8.9,39,33.9,60.3,73.5,66.4c34.2,5.3,68.2,2.7,102-3c14.8-2.5,29.4-5.5,44-8.9c10.5-2.4,14.7,0.6,16.7,11.2
		c3.3,17.5,6.7,34.9,10,52.4c1.9,9.8-0.4,13.9-10,17.3c-13.8,4.8-27.9,8.4-42.2,11.3c-12.7,2.6-25.6,4.7-38.5,6.1
		C607,768.8,585.1,770,555.4,770z"/>
</g>
</svg>
