<?xml version="1.0" encoding="utf-8"?>
<!-- Generator: Adobe Illustrator 25.2.3, SVG Export Plug-In . SVG Version: 6.00 Build 0)  -->
<svg version="1.1" id="Layer_1" xmlns="http://www.w3.org/2000/svg" xmlns:xlink="http://www.w3.org/1999/xlink" x="0px" y="0px"
	 viewBox="0 0 1080 1080" style="enable-background:new 0 0 1080 1080;" xml:space="preserve">
<style type="text/css">
	.st0{fill:#FFFFFF;}
	.st1{fill:#E23137;}
	.st2{fill:#004980;}
	.st3{fill-rule:evenodd;clip-rule:evenodd;fill:#A2192E;}
	.st4{fill:#B01217;}
	.st5{fill:#FBF6F6;}
	.st6{fill:#001B3E;}
	.st7{clip-path:url(#SVGID_2_);fill:#CC004D;}
	.st8{clip-path:url(#SVGID_2_);}
	.st9{clip-path:url(#SVGID_4_);fill:#FFFFFF;}
	.st10{fill:#E2007E;}
	.st11{fill:#004451;}
	.st12{fill:#E41124;}
	.st13{fill:#CA1432;}
	.st14{clip-path:url(#SVGID_6_);fill:#BD1729;}
	.st15{fill:#FF0909;}
	.st16{fill:#0381FF;}
	.st17{fill:#002385;}
	.st18{fill:#00583C;}
	.st19{fill:#FDFDFD;}
	.st20{fill:#00FE00;}
	.st21{fill:#1D1F1B;}
	.st22{fill:#FEFEFE;}
	.st23{fill:#113B65;}
	.st24{fill:#F2CE31;}
</style>
<g>
	<g>
		<g>
			<path class="st6" d="M920,508.9c-67.3-97.9-133.1-26.6-133.1-26.6l-15.2,16.2c-20.6-150.4-256.5-225-256.5-225l0.7,2.1
				c79,71.2,83.6,170.8,89,269.9c3.3,59.9,23.7,81.1,39.4,88.5C586.1,696.5,533,691.5,533,691.5s-75.4,0.1-175-22.1
				c-169.5-37.9-216.5-48.9-229.2-51.9l1.4,2.5c24.6,7,209.3,62.2,209.3,62.2s32.4,9.5,33.5,28.5c1.3,24.1-169.4,94.5-169.4,94.5
				l1.2,1.5c0,0,200.3-72,327.9-79.1c50.5,0.9,88.2,16.8,137.3,14.1c76.3-4.2,121.6-15.4,170.9-109.5
				c45.4-86.6,101.2-99.6,109.9-101.1l0.4-0.4L920,508.9z"/>
			<path class="st6" d="M519.2,339c-77.2,4.3-142.5,51.9-142.5,51.9l2.1,0.6c110.7-6.1,206.7,137.4,216,151.7
				c-3.9-71-7.7-142.1-39.2-202.7c-1.2-1.6-2-2.3-2-2.3S558.5,336.8,519.2,339"/>
		</g>
	</g>
</g>
</svg>
