<?xml version="1.0" encoding="utf-8"?>
<!-- Generator: Adobe Illustrator 25.2.3, SVG Export Plug-In . SVG Version: 6.00 Build 0)  -->
<svg version="1.1" id="Layer_1" xmlns="http://www.w3.org/2000/svg" xmlns:xlink="http://www.w3.org/1999/xlink" x="0px" y="0px"
	 viewBox="0 0 1080 1080" style="enable-background:new 0 0 1080 1080;" xml:space="preserve">
<style type="text/css">
	.st0{fill:#FFFFFF;}
	.st1{fill:#E23137;}
	.st2{fill:#004980;}
	.st3{fill-rule:evenodd;clip-rule:evenodd;fill:#A2192E;}
	.st4{fill:#B01217;}
	.st5{fill:#FBF6F6;}
	.st6{fill:#001B3E;}
	.st7{clip-path:url(#SVGID_2_);fill:#CC004D;}
	.st8{clip-path:url(#SVGID_2_);}
	.st9{clip-path:url(#SVGID_4_);fill:#FFFFFF;}
	.st10{fill:#E2007E;}
	.st11{fill:#004451;}
	.st12{fill:#E41124;}
	.st13{fill:#CA1432;}
	.st14{clip-path:url(#SVGID_6_);fill:#BD1729;}
	.st15{fill:#FF0909;}
	.st16{fill:#0381FF;}
	.st17{fill:#002385;}
	.st18{fill:#00583C;}
	.st19{fill:#FDFDFD;}
	.st20{fill:#00FE00;}
	.st21{fill:#1D1F1B;}
	.st22{fill:#FEFEFE;}
	.st23{fill:#113B65;}
	.st24{fill:#F2CE31;}
</style>
<g>
	<g transform="matrix(.1 0 0 -.1 0 1087)">
		<path class="st0" d="M6948.8,8983.8c-105.5-2.7-160.1-6.3-169-14.3c-8-6.3-52.8-11.6-112.7-13.4c-54.5-1.8-104.6-8-110.9-12.5
			c-6.3-6.3-102.8-10.7-241.4-13.4c-152-2.7-247.7-8-283.5-16.1c-29.5-7.2-89.4-15.2-134.1-18.8c-116.2-8-1209-21.5-2325.8-28.6
			c-689.4-4.5-970.2-8.9-979.1-16.1c-7.2-5.4-50.1-12.5-95.7-16.1c-46.5-3.6-90.3-9.8-98.4-13.4c-40.2-20.6-64.4-26.8-117.1-30.4
			c-31.3-2.7-60.8-8.9-66.2-14.3s-20.6-9.8-33.1-9.8s-27.7-4.5-33.1-9.8c-6.3-6.3-31.3-13.4-57.2-17.9c-25-4.5-52.8-12.5-60.8-19.7
			c-8-7.2-28.6-17-45.6-24.1c-57.2-20.6-105.5-43.8-111.8-53.7c-2.7-4.5-13.4-8.9-22.4-8.9s-19.7-8-22.4-17.9
			c-2.7-9.8-12.5-17.9-21.5-17.9s-23.2-8-32.2-17.9s-19.7-17.9-24.1-17.9c-15.2,0-229.8-220-239.6-245c-4.5-13.4-8.9-34-8.9-46.5
			c0-11.6-3.6-21.5-8-21.5c-4.5,0-10.7-17.9-13.4-40.2c-3.6-22.4-9.8-40.2-15.2-40.2c-4.5,0-8-9.8-8-21.5c0-12.5-3.6-25-8.9-27.7
			c-11.6-7.2-11.6-332.6,0-339.8c4.5-2.7,8.9-39.3,8.9-80.5s3.6-76.9,8-79.6c3.6-2.7,10.7-37.6,13.4-76.9
			c3.6-39.3,10.7-73.3,15.2-76c4.5-3.6,8-22.4,8-42.9s8-59,17.9-84.9c9.8-25.9,17.9-59.9,17.9-76c0-30.4,17.9-77.8,29.5-77.8
			c3.6,0,6.3-9.8,6.3-21.5s6.3-25.9,13.4-32.2c7.2-6.3,15.2-25,17.9-43.8c3.6-17.9,11.6-42.9,18.8-56.3c7.2-12.5,12.5-32.2,12.5-42
			c0-10.7,4.5-18.8,8.9-18.8c5.4,0,8.9-9.8,8.9-21.5c0-12.5,12.5-48.3,26.8-79.6c15.2-32.2,26.8-68,26.8-80.5
			c0-11.6,6.3-26.8,13.4-33.1c7.2-6.3,13.4-18.8,13.4-27.7s4.5-18.8,8.9-21.5c5.4-2.7,8.9-17,8.9-31.3s4.5-28.6,8.9-31.3
			c5.4-2.7,8.9-14.3,8.9-25c0.9-10.7,8-35.8,17.9-55.4c9.8-19.7,17-47.4,17.9-61.7c0-14.3,24.1-75.1,53.7-135
			c29.5-59.9,56.3-121.6,59-136.8c3.6-15.2,11.6-33.1,17.9-38.5c7.2-5.4,12.5-16.1,12.5-22.4c0-7.2,4.5-12.5,8.9-12.5
			c5.4,0,8.9-12.5,8.9-26.8c0-15.2,5.4-29.5,12.5-32.2s16.1-21.5,18.8-42c3.6-19.7,12.5-42,18.8-49.2c7.2-6.3,12.5-21.5,12.5-32.2
			c0-11.6,8-27.7,17.9-36.7c19.7-17.9,44.7-63.5,44.7-80.5c0-6.3,5.4-16.1,12.5-21.5c6.3-5.4,14.3-25,17.9-43.8
			c2.7-19.7,14.3-42.9,27.7-55.4c12.5-11.6,22.4-28.6,22.4-37.6c0-8.9,8.9-25.9,18.8-36.7c10.7-10.7,24.1-32.2,31.3-47.4
			c6.3-15.2,17.9-32.2,25-39.3c8-6.3,14.3-15.2,14.3-19.7c0-12.5,54.5-122.5,63.5-128.8c4.5-2.7,17.9-25.9,29.5-52.8
			c12.5-25.9,26.8-50.1,31.3-53.7c5.4-2.7,9.8-11.6,9.8-19.7s5.4-21.5,12.5-28.6c6.3-8,23.2-35.8,37.6-62.6
			c14.3-25.9,34.9-57.2,46.5-68.9c10.7-11.6,19.7-25,19.7-31.3c0-5.4,12.5-24.1,26.8-41.1c15.2-16.1,26.8-36.7,26.8-44.7
			c0-8.9,20.6-34.9,44.7-58.1c26.8-25.9,47.4-53.7,51-69.7c2.7-15.2,8-26.8,12.5-26.8c4.5,0,8-4.5,8-8.9c0-5.4,17-33.1,37.6-60.8
			c45.6-59.9,55.4-78.7,64.4-114.5c3.6-14.3,16.1-35.8,26.8-48.3c11.6-12.5,23.2-33.1,26.8-45.6c2.7-13.4,19.7-44.7,36.7-70.6
			s31.3-50.1,31.3-53.7c0-10.7,30.4-66.2,38.5-69.7c3.6-1.8,6.3-8.9,6.3-16.1c0-23.2,42-105.5,62.6-124.3
			c11.6-9.8,31.3-40.2,44.7-68c12.5-27.7,38.5-70.6,56.3-95.7c17.9-24.1,33.1-50.1,33.1-58.1c0-7.2,6.3-17.9,13.4-24.1
			c7.2-5.4,15.2-18.8,18.8-29.5c3.6-9.8,19.7-38.5,36.7-61.7c17-24.1,34-53.7,38.5-66.2c4.5-11.6,16.1-33.1,25.9-46.5
			c9.8-13.4,27.7-40.2,40.2-59.9c52.8-80.5,173.5-237,183.3-237c4.5,0,17.9-15.2,30.4-34c12.5-18.8,46.5-62.6,76-96.6
			c29.5-34.9,59-75.1,66.2-90.3c24.1-57.2,173.5-217.3,346.9-372c66.2-59,134.1-120.7,150.2-136.8c16.1-17,36.7-30.4,45.6-30.4
			c17.9,0,41.1-17.9,130.6-101c30.4-27.7,60.8-51,68-51c7.2,0,29.5-16.1,48.3-35.8s39.3-35.8,45.6-35.8c6.3,0,12.5-6.3,16.1-13.4
			c2.7-7.2,12.5-13.4,22.4-13.4c9.8,0,25-8.9,34-20.6c17-20.6,85.8-68.9,100.2-68.9c4.5,0,12.5-5.4,17.9-12.5
			c5.4-6.3,21.5-14.3,35.8-17c13.4-2.7,37.6-15.2,52.8-27.7c14.3-13.4,30.4-23.2,34-23.2c16.1,0,111.8-42.9,127-56.3
			c8.9-8.9,26.8-15.2,40.2-15.2c12.5,0,25.9-3.6,28.6-8.9c2.7-4.5,14.3-8.9,24.1-8.9c9.8,0,31.3-7.2,46.5-17
			c15.2-8.9,43.8-21.5,63.5-27.7c19.7-6.3,39.3-14.3,44.7-18.8c4.5-4.5,17.9-8,30.4-8c11.6,0,28.6-5.4,35.8-12.5
			c22.4-19.7,166.3-34,380.9-38.5c203.9-3.6,230.7-0.9,323.7,39.3c15.2,6.3,34,11.6,40.2,11.6c18.8,0,69.7,25.9,99.3,51
			c14.3,10.7,33.1,20.6,42,20.6c8.9,0,28.6,9.8,42.9,22.4c15.2,12.5,30.4,22.4,34.9,22.4c3.6,0,14.3,9.8,23.2,21.5
			c8.9,11.6,26.8,24.1,40.2,27.7c24.1,5.4,66.2,34.9,108.2,72.4c11.6,10.7,40.2,29.5,64.4,41.1c24.1,10.7,45.6,26.8,48.3,34.9
			c2.7,8.9,19.7,17.9,38.5,21.5c17.9,3.6,37.6,8.9,42,13.4c5.4,3.6,34.9,16.1,66.2,26.8c32.2,10.7,69.7,28.6,84.1,41.1
			c14.3,11.6,29.5,21.5,34,21.5c4.5,0,24.1,9.8,42.9,22.4c19.7,11.6,46.5,24.1,60.8,27.7c13.4,3.6,41.1,17,60.8,29.5
			c40.2,26.8,37.6,24.1,100.2,72.4c25,18.8,56.3,37.6,69.7,41.1c13.4,3.6,34,15.2,46.5,26.8c12.5,11.6,28.6,21.5,35.8,21.5
			c6.3,0,14.3,6.3,17,13.4c2.7,7.2,23.2,21.5,44.7,31.3c21.5,10.7,39.3,23.2,39.3,27.7s5.4,8,12.5,8c6.3,0,17,6.3,23.2,14.3
			c7.2,7.2,39.3,29.5,73.3,49.2c33.1,19.7,60.8,39.3,60.8,42.9c0,4.5,9.8,10.7,21.5,13.4c12.5,2.7,25,13.4,27.7,23.2
			s15.2,20.6,27.7,23.2c11.6,2.7,29.5,15.2,38.5,26.8c8.9,11.6,22.4,21.5,29.5,21.5c7.2,0,20.6,8,29.5,17.9s34,27.7,54.5,40.2
			c21.5,12.5,39.3,26.8,39.3,32.2c0,10.7,124.3,133.2,134.1,133.2c4.5,0,17.9,12.5,29.5,26.8c12.5,15.2,26.8,26.8,31.3,26.8
			c5.4,0,20.6,13.4,35.8,30.4c14.3,17,34,33.1,43.8,35.8c9.8,2.7,31.3,18.8,49.2,34.9c17.9,15.2,39.3,33.1,49.2,38.5
			c8.9,5.4,19.7,17.9,25,28.6c4.5,10.7,13.4,19.7,19.7,19.7c9.8,0,73.3,62.6,115.4,115.4c71.5,88.5,99.3,126.1,113.6,157.4
			c8.9,19.7,22.4,47.4,29.5,60.8c7.2,14.3,12.5,31.3,12.5,37.6c0,6.3,9.8,23.2,21.5,37.6c11.6,13.4,24.1,38.5,26.8,53.7
			c3.6,16.1,10.7,31.3,15.2,34c4.5,3.6,8,14.3,8,25s6.3,31.3,13.4,44.7s15.2,40.2,18.8,58.1c2.7,17.9,12.5,41.1,21.5,51
			c8.9,9.8,17.9,38.5,21.5,62.6c8,61.7,40.2,157.4,59.9,179.7c9.8,9.8,17,23.2,17,28.6c0,9.8,6.3,25,27.7,64.4
			c19.7,35.8,43.8,93,43.8,102.8c0,6.3,6.3,16.1,13.4,22.4c7.2,6.3,13.4,18.8,13.4,27.7c0,9.8,3.6,24.1,8.9,33.1
			c15.2,27.7,36.7,103.7,42,149.3c2.7,25,8.9,47.4,13.4,50.1s10.7,22.4,13.4,42.9c2.7,19.7,8.9,36.7,12.5,36.7c4.5,0,8,16.1,8,34.9
			c0,19.7,3.6,37.6,8,40.2c3.6,2.7,9.8,29.5,13.4,58.1c3.6,29.5,9.8,56.3,14.3,59c4.5,2.7,10.7,25,14.3,50.1
			c3.6,24.1,9.8,46.5,13.4,49.2c4.5,2.7,8,11.6,8,20.6s6.3,21.5,13.4,27.7s13.4,24.1,13.4,39.3c0,15.2,6.3,35.8,13.4,44.7
			c7.2,9.8,13.4,25,13.4,34.9c0,8.9,6.3,22.4,13.4,29.5c7.2,8,13.4,21.5,13.4,31.3c0,8.9,4.5,17,8.9,17c5.4,0,8.9,25.9,8.9,60.8
			c0,34,5.4,73.3,11.6,87.6c9.8,21.5,11.6,174.4,5.4,884.4c-6.3,845.9-12.5,1031.9-39.3,1150.8c-7.2,34-17,152.9-22.4,277.2
			c-5.4,118.9-13.4,237.9-18.8,262c-12.5,62.6-15.2,79.6-26.8,167.2c-8,64.4-12.5,78.7-26.8,83.2c-9.8,3.6-27.7,15.2-39.3,27.7
			c-11.6,11.6-29.5,21.5-39.3,21.5s-18.8,2.7-20.6,7.2c-4.5,9.8-84.9,64.4-94.8,64.4c-5.4,0-10.7,2.7-12.5,7.2
			c-6.3,15.2-122.5,64.4-165.4,68.9c-25.9,3.6-49.2,9.8-52.8,14.3c-2.7,4.5-14.3,8-25.9,8c-11.6,0-23.3,3.6-25.9,8
			c-2.7,3.6-24.1,9.8-47.4,13.4c-24.1,3.6-51,11.6-59.9,18.8c-9.8,7.2-30.4,13.4-45.6,13.4c-15.2,0-31.3,3.6-35.8,8
			c-5.4,4.5-44.7,11.6-89.4,15.2c-56.3,4.5-87.6,10.7-104.6,22.4c-17.9,12.5-39.3,17-89.4,17c-37.6,0-97.5,8-136.8,17.9
			c-38.5,9.8-88.5,17.9-110.9,17.9s-49.2,6.3-58.1,13.4C7623.9,8990.1,7443.2,8991.9,6948.8,8983.8z"/>
		<path class="st11" d="M4582.7,9431.8c-281.7-8-915.7-49.2-1090.9-70.6c-19.7-2.7-87.6-10.7-152-17.9
			c-786-93-1471-292.4-1997.6-579.4l-101-55.4l5.4-268.3c17-778.8,99.3-1539.8,252.2-2324.9c70.6-361.3,119.8-554.4,269.2-1055.2
			c169-566.9,299.6-867.4,609.8-1403.9c101-176.2,131.4-220.9,287-423.9c208.3-272.7,313.9-391.7,523.1-591.1
			c182.4-172.6,563.3-460.5,796.7-603.6c472.1-287,851.3-439.1,1278.7-514.2l100.2-17l124.3,25
			c507.9,102.8,1151.7,380.9,1602.4,693.9c472.1,327.3,844.1,732.4,1294.8,1408.4c117.1,176.2,296.9,516,425.6,804.8
			c255.7,574.1,436.4,1183.9,520.4,1757.1c12.5,88.5,34.9,225.3,49.2,304c68.9,383.6,114.5,806.6,143.1,1310
			c10.7,194.9,35.8,778.8,35.8,849.5v50.1l-91.2,53.7c-359.5,210.1-817.3,374.7-1312.7,472.1c-468.6,92.1-1137.4,167.2-1645.3,184.2
			C6258.4,9428.3,4775.8,9437.2,4582.7,9431.8z M7573.8,8665.5c97.5-28.6,138.6-46.5,281.7-125.2c152-83.2,235.2-162.7,355-338.9
			c34-51,36.7-58.1,34.9-113.6c-0.9-32.2-11.6-100.2-24.1-149.3l-22.4-91.2l32.2-77.8c17.9-42.9,62.6-128.8,101-191.4
			c101.9-169,120.7-225.3,103.7-313c-4.5-20.6-10.7-27.7-25-27.7c-28.6,0.9-93.9,32.2-148.4,74.2
			c-76.9,58.1-310.3,264.7-497.2,440.8c-202.1,191.4-230.7,214.6-312.1,262.9c-220,128.8-393.4,99.3-521.3-87.6
			c-29.5-42.9-68.9-108.2-87.6-144.9c-34-64.4-34.9-70.6-37.6-169.9c-3.6-115.4,10.7-250.4,32.2-290.6
			c32.2-63.5,161.9-248.6,233.4-334.4c106.4-127.9,551.7-491.8,828-677.8c51-34,116.2-91.2,178.8-155.6
			c161-166.3,217.3-253.1,274.5-422.1l27.7-82.3l-0.9-232.5c-0.9-338.9-14.3-410.4-133.2-679.6c-100.2-228-154.7-328.2-268.3-498.1
			c-143.1-212.8-251.3-351.4-436.4-558c-123.4-137.7-312.1-301.3-465-403.3c-43.8-29.5-112.7-75.1-152-102.8
			c-126.1-85.8-266.5-161-451.6-238.8c-36.7-16.1-75.1-34-85.8-41.1c-34.9-22.4-172.6-66.2-267.4-84.9
			c-78.7-14.3-129.7-17.9-297.8-17.9c-397,0-594.6,31.3-860.2,135.9c-56.3,22.4-125.2,47.4-153.8,55.4
			c-79.6,22.4-233.4,90.3-321.9,140.4c-94.8,54.5-243.2,161.9-304.9,221.8c-40.2,37.6-84.1,104.6-75.1,113.6
			c1.8,1.8,105.5,6.3,230.7,8.9l227.1,5.4l31.3,23.2c51,38.5,142.2,133.2,237.9,247.7c141.3,170.8,149.3,182.4,318.3,486.4
			c160.1,287.9,198.5,341.6,353.2,493.6c144,141.3,213.7,201.2,288.8,249.5l48.3,31.3l-121.6,10.7c-193.1,17.9-573.2,84.1-671.5,118
			c-74.2,25.9-151.1,68.9-186,104.6c-16.1,16.1-27.7,31.3-25,33.1c10.7,8.9,321.9,152,422.1,194.9l113.6,48.3l-95.7,6.3
			c-287,19.7-280.8,18.8-605.4,114.5c-487.3,144-630.4,197.6-849.5,318.3c-108.2,59.9-304,185.1-313.9,200.3
			c-6.3,10.7,27.7,19.7,491.8,135.9c220.9,55.4,394.3,101.9,384.5,103.7c-194,28.6-516.8,126.1-786.9,237
			c-600,245.9-930.9,419.4-1183.9,623.3c-102.8,83.2-381.8,369.3-458.7,471.2c-58.1,76.9-124.3,203.9-144.9,279l-14.3,47.4
			l29.5,27.7c177.9,167.2,400.6,293.3,618.8,349.6c157.4,40.2,569.6,119.8,746.7,143.1c346.9,46.5,1086.5,73.3,1350.2,49.2
			c255.7-23.3,511.5-102.8,603.6-187.8c53.7-49.2,114.5-134.1,143.1-199.4c39.3-89.4,135.9-460.5,228-881.7
			c51-230.7,87.6-336.2,178.8-517.7c51.9-104.6,60.8-117.1,153.8-208.3c262-258.4,486.4-447.1,838.8-703.7
			c139.5-101.9,346.1-233.4,367.5-233.4c33.1,0,93,47.4,131.4,102.8c27.7,40.2,30.4,49.2,26.8,93.9c-7.2,101-45.6,153.8-433.7,600
			c-203.9,233.4-332.6,402.4-378.2,495.4c-73.3,148.4-127,383.6-125.2,554.4c1.8,297.8,44.7,482.9,145.8,623.3
			c57.2,79.6,218.2,246.8,304,316.5c127,101.9,260.2,164.5,414.9,194.9c108.2,21.5,116.2,21.5,239.6,18.8
			C7472.8,8688.8,7513.9,8683.4,7573.8,8665.5z"/>
	</g>
</g>
</svg>
