<?xml version="1.0" encoding="utf-8"?>
<!-- Generator: Adobe Illustrator 25.2.3, SVG Export Plug-In . SVG Version: 6.00 Build 0)  -->
<svg version="1.1" id="Layer_1" xmlns="http://www.w3.org/2000/svg" xmlns:xlink="http://www.w3.org/1999/xlink" x="0px" y="0px"
	 viewBox="0 0 1080 1080" style="enable-background:new 0 0 1080 1080;" xml:space="preserve">
<style type="text/css">
	.st0{fill:#FFFFFF;}
	.st1{fill:#E23137;}
	.st2{fill:#004980;}
	.st3{fill-rule:evenodd;clip-rule:evenodd;fill:#A2192E;}
	.st4{fill:#B01217;}
	.st5{fill:#FBF6F6;}
	.st6{fill:#001B3E;}
	.st7{clip-path:url(#SVGID_2_);fill:#CC004D;}
	.st8{clip-path:url(#SVGID_2_);}
	.st9{clip-path:url(#SVGID_4_);fill:#FFFFFF;}
	.st10{fill:#E2007E;}
	.st11{fill:#004451;}
	.st12{fill:#E41124;}
	.st13{fill:#CA1432;}
	.st14{clip-path:url(#SVGID_6_);fill:#BD1729;}
	.st15{fill:#FF0909;}
	.st16{fill:#0381FF;}
	.st17{fill:#002385;}
	.st18{fill:#00583C;}
	.st19{fill:#FDFDFD;}
	.st20{fill:#00FE00;}
	.st21{fill:#1D1F1B;}
	.st22{fill:#FEFEFE;}
	.st23{fill:#113B65;}
	.st24{fill:#F2CE31;}
</style>
<g>
	<g>
		<path class="st10" d="M936.3,914.3c-0.1,10.5-7.9,21.9-21.4,22.1h-750c-13.4-0.2-21.2-11.7-21.2-22.1V165.7
			c0.1-10.5,7.9-21.9,21.3-22.1h750c13.4,0.2,21.2,11.7,21.2,22.1L936.3,914.3z"/>
	</g>
	<path class="st0" d="M342.7,805h206.7c114.8,0,188-57,188-154c0-68.9-42.5-108.9-99.5-121.6v-1.7c43.4-11.9,83.4-51.9,83.4-117.4
		c0-80.8-62.1-135.2-176.9-135.2H342.7V805z M459.2,713.9V571.1h73.2c52.7,0,79.1,24.7,79.1,72.3c0,46.8-28.1,70.6-80,70.6H459.2z
		 M459.2,491.1v-125h70.6c51,0,74,23.8,74,60.4c0,40.8-22.1,64.6-74.8,64.6H459.2z"/>
</g>
</svg>
