<?xml version="1.0" encoding="utf-8"?>
<!-- Generator: Adobe Illustrator 25.2.3, SVG Export Plug-In . SVG Version: 6.00 Build 0)  -->
<svg version="1.1" id="Layer_1" xmlns="http://www.w3.org/2000/svg" xmlns:xlink="http://www.w3.org/1999/xlink" x="0px" y="0px"
	 viewBox="0 0 1080 1080" style="enable-background:new 0 0 1080 1080;" xml:space="preserve">
<style type="text/css">
	.st0{fill:#FFFFFF;}
	.st1{fill:#E23137;}
	.st2{fill:#004980;}
	.st3{fill-rule:evenodd;clip-rule:evenodd;fill:#A2192E;}
	.st4{fill:#B01217;}
	.st5{fill:#FBF6F6;}
	.st6{fill:#001B3E;}
	.st7{clip-path:url(#SVGID_2_);fill:#CC004D;}
	.st8{clip-path:url(#SVGID_2_);}
	.st9{clip-path:url(#SVGID_4_);fill:#FFFFFF;}
	.st10{fill:#E2007E;}
	.st11{fill:#004451;}
	.st12{fill:#E41124;}
	.st13{fill:#CA1432;}
	.st14{clip-path:url(#SVGID_6_);fill:#BD1729;}
	.st15{fill:#FF0909;}
	.st16{fill:#0381FF;}
	.st17{fill:#002385;}
	.st18{fill:#00583C;}
	.st19{fill:#FDFDFD;}
	.st20{fill:#00FE00;}
	.st21{fill:#1D1F1B;}
	.st22{fill:#FEFEFE;}
	.st23{fill:#113B65;}
	.st24{fill:#F2CE31;}
</style>
<g>
	<g>
		<path class="st13" d="M150.2,470.8l-0.6-0.3c-10.2-4.9-13.8-10.4-13.8-22v-92.6c0-8.9,6.1-22.4,12.9-28.2l62.2-53.1
			c7.1-6.3,22.1-11.7,31.8-11.7h79.7c17.9,0,32.5-14.4,32.5-32.3v-41.5c0-7.3,6.3-15.4,13-17l135.5-32.7c9.4-2.2,26.5-1.2,36,2.2
			l92.8,34.6c0.6,0.5,1.4,0.8,2.1,1c7,4.3,13.7,9.8,17.8,14.3l50.2,56.3c12.1,12.7,25.3,16.2,42.1,7.8l13-6.1
			c5.5-2.6,12.2-0.3,17.8,6.6L892.2,388c4.7,5.4,5,15.1,0.9,20.8L768.2,576.2c-5.4,7.4-18.2,13.5-27.1,13.5h-29.8l32.1-44.6
			c8.3-11.6,14.5-31.6,14.5-45.7V396.6c0-14.8-7.9-34.4-18.4-44.9l-81.7-82.1c-17.2-17.4-22.5-24.9-56.1-24.9H501.5
			c-15.7,0-34.5,10.5-42.6,23.5l-6.3,10.2h-52.6c-21.6-0.7-34.1,5.3-44.6,21.8l-0.1,0.6L310,380.1l-0.6,0.7
			c-0.8,2.5-1.6,4.6-1.9,6.7h-0.5l-15.5,145c-0.8,6.8-1.5,13.3-1.7,19.3"/>
		<path class="st13" d="M663,379.7c-15.6-17.4-36.4-39.2-35.6-38.3c-11.4-11.5-22.9-18.6-37.7-18.6h-58c-12.1,0-18.9,4.2-25.4,13.7
			c-0.3,0.3-29,47.6-29.2,48.2c-8.2,14.8-7.2,30.5,13.3,40.2c11.5,5,39.9,17.5,54.6,22.9c21,8.4,35.3,10.8,47.2-5.9l15.7-21.4
			c12.7-16.7,6.6-24.8-2.1-33.2c-8.4-8.6-14.4-14.7-14.4-14.7c-2.5-2.6-3.6-2.7-10.6-2.7h-7.6c-4.1,0-5.9,2.9-0.9,7.6
			c0,0,11.2,12.4,15.6,17.5c5.3,6.3,5.1,9.2,0,16l-13.2,17.5c-5.7,7.9-9,8.4-20.9,3.4l-53.2-22.5c-6.5-3.6-7.2-8.1-2.8-16.9
			c0.6-0.9,25.2-41.6,25.7-42.4c2.5-3.7,4.2-5.4,10-5.4h57.9c9.2,0,16.1,3.6,23.5,12.4c0,0,30.3,33.4,32.7,36.1
			c8.2,7.8,10.1,13.4,10.1,47v47.8c-11.9-2.9-24.8-6.6-25.7-6.9c-12.9-4.5-33.1-5.3-46.7-1.2l-60.5,18.6l-117.2-55.8l3.6-25.2
			c1.3-10.8,7.3-27.8,13.4-37.1l60.7-96.4c5-7.9,17.8-15.1,27.2-15.1h100.6c9.2,0,15.9,2.5,20.4,7.5l81.6,81.6
			c7.5,7.5,13.4,22.1,13.4,32.4v102.7c0,3-0.5,6.8-1.4,11l-0.8,2.8l-48.1-13v-49C678.4,414.1,679,397.5,663,379.7"/>
		<path class="st13" d="M400.4,366.3c-7.2,11-14,30.4-15.9,43.4l-2.5,20.6l-3.1-1.6l-36.3-17.5c-4.7-3-7.1-6.9-7.1-11.1l1.5-5.8
			l45.1-78.5c6.1-9.4,12-13.4,28.8-13.1h29.5"/>
		<path class="st13" d="M336.4,425.8l4.9,2.9l160.8,77.1l-117.2,35.8c-14.2,4.5-28,19.3-31.1,33.7l-16.1,71.4l-15.3-54.3
			c-3.7-16.4-4.4-31.5-1.8-51.5l11.9-113.2l0.8-3.9"/>
		<path class="st13" d="M382.7,585.3c1.8-8.2,10.9-17.7,18.6-20.4l200.4-61.6c9.7-2.7,26.2-2.3,35.1,1.1l0.9,0.1l78.5,21.5l-0.9,1
			l-45.1,62.8H540.6c-13.3,0-33.8,5.3-45.8,12.4l-132.9,75.7"/>
		<path class="st13" d="M511.6,935.9c-3.9,5.2-13.2,7.7-19.5,4.8c0,0-223.1-113.9-264.9-135.6c-7.8-5.5-16.2-14.5-19.8-21.9
			l-76.5-172.1c-1.2-2.9-2-5.6-2-8c0-4.5,2.8-8.2,7.2-11.5c1.5-1,74.6-37.1,96.9-48.6l57.6,33.6l0.1-0.6l0.3,0.1
			c0.6,5.1,1.7,9.7,2.7,14.5c0,0.5,25.7,89.7,30.1,106.2l-0.4,2.8l-31.6,17.9c-11.3,6.8-18.1,17.9-17.8,30.3c0.4,7.9,4,23,25.5,33.5
			c0,0,1.8,0.8,5.1,2.6c1.7,1.2,3.8,2.5,6,3.5c0,0,164.4,83.9,223,114"/>
		<path class="st13" d="M947.8,554.6L874,578.3c-13.4,4.2-30.9,16.7-39.3,28l-89,119.7c-5.9,8.1-19.7,18-29.2,21.7l-127.2,46.4
			c-8.6,3.1-23.7,2-31.9-2.4c0,0-117-62.3-122.2-65c-7.2-4.2-12-3.2-12,2.9c0,5.8,0,9.3,12,16.1c11.9,6.7,124.1,70.6,124.1,70.6
			c13,6.8,34.2,8.3,48.1,3.2L735.3,773c12.7-4.7,30.1-17.5,38.3-28.8l84.2-113l19.1,74.2c2.4,8.8-0.2,23.6-5.3,31.3l-72.3,100.8
			c-12.8,17.2-18.4,19.7-41.7,24.4c-0.9,0.1-201.6,23.5-207.7,24.2c-5-2.2-197.3-100.6-234.8-119.6c-5.9-4-9-8.4-9-13.2V753
			c0-4.3,2.5-8.7,7.2-11.3L516.1,626c8.9-5.1,26.1-9.5,36.2-9.5h200.2c15,0,34-9.5,43.2-22c0,0,47.3-62.7,83.6-111.4l69.8,66.6
			c1.6,1.5,2.1,3.3,2.1,3.3C950.8,552.9,950,553.6,947.8,554.6"/>
	</g>
</g>
</svg>
