<?xml version="1.0" encoding="utf-8"?>
<!-- Generator: Adobe Illustrator 25.2.3, SVG Export Plug-In . SVG Version: 6.00 Build 0)  -->
<svg version="1.1" id="Layer_1" xmlns="http://www.w3.org/2000/svg" xmlns:xlink="http://www.w3.org/1999/xlink" x="0px" y="0px"
	 viewBox="0 0 1080 1080" style="enable-background:new 0 0 1080 1080;" xml:space="preserve">
<style type="text/css">
	.st0{fill:#FFFFFF;}
	.st1{fill:#E23137;}
	.st2{fill:#004980;}
	.st3{fill-rule:evenodd;clip-rule:evenodd;fill:#A2192E;}
	.st4{fill:#B01217;}
	.st5{fill:#FBF6F6;}
	.st6{fill:#001B3E;}
	.st7{clip-path:url(#SVGID_2_);fill:#CC004D;}
	.st8{clip-path:url(#SVGID_2_);}
	.st9{clip-path:url(#SVGID_4_);fill:#FFFFFF;}
	.st10{fill:#E2007E;}
	.st11{fill:#004451;}
	.st12{fill:#E41124;}
	.st13{fill:#CA1432;}
	.st14{clip-path:url(#SVGID_6_);fill:#BD1729;}
	.st15{fill:#FF0909;}
	.st16{fill:#0381FF;}
	.st17{fill:#002385;}
	.st18{fill:#00583C;}
	.st19{fill:#FDFDFD;}
	.st20{fill:#00FE00;}
	.st21{fill:#1D1F1B;}
	.st22{fill:#FEFEFE;}
	.st23{fill:#113B65;}
	.st24{fill:#F2CE31;}
</style>
<g>
	<g>
		<defs>
			<rect id="SVGID_5_" x="124.1" y="146.3" width="831.8" height="787.5"/>
		</defs>
		<clipPath id="SVGID_2_">
			<use xlink:href="#SVGID_5_"  style="overflow:visible;"/>
		</clipPath>
		<path style="clip-path:url(#SVGID_2_);fill:#BD1729;" d="M404.5,880.8C224.7,802.7-13.9,603.1,224.1,380.2
			c238.1-222.8,477.6-233.6,477.6-233.6s419.9-32.8,180.4,500.6C728.9,1022.7,548.5,943.3,404.5,880.8L404.5,880.8z"/>
	</g>
	<path class="st0" d="M580.1,359.4h-93.3c-0.5,0-1,0-1.5,0h-7.5c-0.3,0-0.7,0-1,0l-4.1,0.1c-67.5,2.4-116,52.1-116,120
		c0,48.7,40.2,69.7,86.8,93.9c21.7,11.4,26.1,19,26.1,27.6c0,16.2-15.1,31.4-31.6,31.9c-0.5,0-109.7,0-109.7,0
		c-8.6,0-16.8,5.2-18.1,13.8l0.1-0.3l-7.4,42.4l-0.4,3.6c0,8.2,8.1,13.7,16.7,13.7l96.8,0l11.7,0c70.2,0,121.1-50.5,121.1-120.1
		c0-39.7-21.5-67.6-69.6-90.5c-0.1,0-8.6-4.1-8.6-4.1c-25.8-12.3-34.7-17.1-34.7-27.8c0-15.6,16.1-31.2,32.4-30.9h10.2l0.1,0
		c32.9,0,92.5,0,92.5,0c8.6,0,19.2-5.3,20.5-14.1l0,0.3l7.1-41.1l0.5-4.1C599.2,365.1,588.7,359.4,580.1,359.4L580.1,359.4z"/>
	<line class="st0" x1="479.2" y1="495.4" x2="479.3" y2="495.4"/>
	<path class="st0" d="M640.8,359.4c-7.8,0-16,4.8-18.2,12.8l-0.5,2.4L569,688.2l-0.7,4c-0.9,10,5.7,13.9,14.3,13.9h47.7
		c8.8,0,15-5.4,16.2-14l0,0.3c0,0,20-118.2,21-124.5c6.6,0,92.1,0,92.1,0c8.8,0,17.4-5.4,18.6-14l0,0.3l7.4-44.9l0.3-2.4
		c0-8.3-8.1-13.9-16.7-13.9c0,0-77.1,0-88.8,0c1.8-10.5,9.3-53.4,10.3-58.7c6.6,0,113.7,0,113.7,0c8.6,0,16.9-5.2,18.1-14l0,0.3
		l7.3-43l0.4-4.3c0-8.3-8.1-13.9-16.7-13.9H640.8L640.8,359.4z"/>
</g>
</svg>
