<?xml version="1.0" encoding="utf-8"?>
<!-- Generator: Adobe Illustrator 25.2.3, SVG Export Plug-In . SVG Version: 6.00 Build 0)  -->
<svg version="1.1" id="Layer_1" xmlns="http://www.w3.org/2000/svg" xmlns:xlink="http://www.w3.org/1999/xlink" x="0px" y="0px"
	 viewBox="0 0 1080 1080" style="enable-background:new 0 0 1080 1080;" xml:space="preserve">
<style type="text/css">
	.st0{fill:#FFFFFF;}
	.st1{fill:#E23137;}
	.st2{fill:#004980;}
	.st3{fill-rule:evenodd;clip-rule:evenodd;fill:#A2192E;}
	.st4{fill:#B01217;}
	.st5{fill:#FBF6F6;}
	.st6{fill:#001B3E;}
	.st7{clip-path:url(#SVGID_2_);fill:#CC004D;}
	.st8{clip-path:url(#SVGID_2_);}
	.st9{clip-path:url(#SVGID_4_);fill:#FFFFFF;}
	.st10{fill:#E2007E;}
	.st11{fill:#004451;}
	.st12{fill:#E41124;}
	.st13{fill:#CA1432;}
	.st14{clip-path:url(#SVGID_6_);fill:#BD1729;}
	.st15{fill:#FF0909;}
	.st16{fill:#0381FF;}
	.st17{fill:#002385;}
	.st18{fill:#00583C;}
	.st19{fill:#FDFDFD;}
	.st20{fill:#00FE00;}
	.st21{fill:#1D1F1B;}
	.st22{fill:#FEFEFE;}
	.st23{fill:#113B65;}
	.st24{fill:#F2CE31;}
</style>
<g>
	<g transform="translate(0.000000,1445.000000) scale(0.100000,-0.100000)">
		<path class="st15" d="M5320.2,12865.7c-106.2-161.5-239.3-339.1-329.4-437.5c-40.5-44.4-153.1-162.8-250.9-263.8
			c-416.9-431.1-528.9-570.7-642.8-801c-93.3-189.8-140.9-366.1-160.9-601.6c-14.2-167.3-7.1-326.2,23.2-501.9
			c62.4-361.6,166-619.6,380.9-949c154.4-236.8,301.1-418.9,498.6-619.6c227.1-231.6,430.4-361.6,564.3-361.6
			c159.6,0,420.8,190.4,714.8,521.2c219.4,246.4,454.2,598.4,561,840.9c93.9,214.3,165.4,489,191.1,735.4
			c14.2,140.3,5.8,333.9-23.2,507c-56,339.7-201.4,609.3-511.5,947.1c-43.8,47.6-165.4,175-269.6,283.1
			c-104.2,108.1-220,229.7-256.7,270.2c-81.1,89.4-232.3,290.2-332.6,442c-41.2,61.1-74.6,111.3-75.3,110.7
			C5400.6,12987.3,5364,12932.6,5320.2,12865.7z"/>
		<path class="st15" d="M6805.2,12490.6c-69.5-19.9-135.1-79.1-160.9-144.8c-10.9-27.7-14.8-50.2-14.8-91.4
			c0-48.3,2.6-59.8,19.9-97.8c88.1-188.5,346.1-192.4,437.5-6.4c22.5,45.7,24.4,52.8,23.8,103.6c-0.6,99.7-48.3,177.6-134.5,220
			C6928.7,12497,6854.7,12504.7,6805.2,12490.6z"/>
		<path class="st15" d="M7290.3,11840.1c-69.5-22.5-132.5-80.4-157-144.1c-19.3-50.8-19.3-125.5,0-176.9
			c19.3-48.9,71.4-105.5,121-130c34.1-18,43.1-19.3,104.9-19.3c61.8,0,70.8,1.9,105.5,18.7c50.8,25.1,90.1,65.6,115.2,118.4
			c18.7,38.6,20.6,48.9,20.6,101c0,51.5-2.6,62.4-20.6,101c-24.4,52.1-66.3,94.6-116.5,118.4
			C7419,11848.5,7335.4,11854.9,7290.3,11840.1z"/>
		<path class="st15" d="M1656,10956.7l-25.1-2.6l4.5-126.8c15.4-463.2,105.5-767.6,324.3-1097.6c108.1-164.7,207.8-287,351.9-433.7
			c452.3-462,994.7-746.3,1679.3-882.1c232.3-45.7,512.1-70.8,796.5-71.4h88.8l-56.6,47c-165.4,138.3-301.1,281.8-452.3,477.4
			c-154.4,199.5-335.2,481.3-427.9,665.9c-66.9,133.8-167.9,298.5-259.3,424.6c-127.4,175-343.6,413.7-458.1,506.4
			c-337.8,271.5-830.6,456.8-1306.1,490.9C1825.9,10960.6,1707.5,10961.9,1656,10956.7z"/>
		<path class="st15" d="M8874.4,10954.1c-404.7-30.2-838.4-177.6-1159.4-392.5c-149.3-100.4-288.2-231-448.5-423.4
			c-174.4-209.1-272.8-356.4-400.8-602.2c-122.2-233.6-297.3-503.1-454.9-701.3c-152.5-192.4-282.5-326.2-457.5-471.6l-25.7-21.2
			l180.2,3.9c295.3,5.8,485.8,25.1,717.4,71.4c528.9,105.5,951.6,291.5,1344.7,591.9c47.6,36.7,93.9,73.3,102.9,81.1
			c9,8.4,41.2,36,70.8,62.4c88.1,76.6,240,234.8,319.1,331.4c261.2,319.1,400.2,597.7,462,925.2c25.7,133.2,36.7,240,40.5,398.3
			l3.9,145.4l-30.9,3.9C9098.9,10962.5,8965.7,10961.2,8874.4,10954.1z"/>
		<path class="st15" d="M4550.7,8143.8c-193.7-16.7-272.8-64.3-591.3-351.9c-326.8-295.3-434.3-378.3-595.1-459.4
			c-65-32.2-167.3-67.6-232.9-80.4c-68.2-12.9-201.4-12.9-269.6,0.6C2728,7277.7,2571,7355,2431.3,7465c-19.3,15.4-36.7,27-38,25.7
			c-1.3-1.3,6.4-24.4,16.7-50.8c59.8-154.4,229.1-310.1,401.5-368.7c95.2-32.2,140.3-38,297.9-38c139,0.6,151.8,1.3,216.8,17.4
			c170.5,43.1,298.5,112,523.1,279.9c95.9,72.1,120.3,93.9,328.1,293.4c232.9,223.9,319.1,290.2,445.9,341
			c92.6,38,142.2,46.3,277.9,46.3c112,0,130.6-1.3,171.1-14.2c43.8-14.2,96.5-45.7,102.9-61.8c1.3-4.5-13.5-25.1-33.5-45.7
			c-88.1-93.9-145.4-211.7-176.9-366.1c-43.1-214.3-7.1-446.5,97.8-624.7c35.4-59.2,131.3-155.7,180.8-181.4l37.3-18.7V5906v-793.3
			h122.2h122.2V5906v792.7l39.2,21.2c54.7,30.2,123.5,97.8,166.6,162.8c193,293.4,160.9,773.4-67.6,1005.6
			c-19.3,19.3-35.4,38-35.4,41.2c0,10.9,42.5,46.3,70.8,58.5c41.2,18,100.4,26.4,191.1,26.4c140.9,0,240-21.9,351.9-77.9
			c112-56.6,174.4-107.4,418.2-342.9c172.4-167.3,201.4-192.4,296.6-263.8c222.6-166.6,352.6-236.1,523.1-279.2
			c65-16.1,76.6-17.4,220-16.7c167.9,0,215.5,7.1,319.8,47c131.9,50.8,271.5,168.6,341,287c20.6,35.4,56,118.4,51.5,122.9
			c-1.3,1.3-19.3-10.9-40.5-27c-139.6-110-294-185.9-427.2-211c-68.2-13.5-201.4-13.5-269.6-0.6c-77.9,14.8-174.4,50.2-264.4,97.8
			c-87.5,45.7-90.7,47.6-180.2,113.9c-74.6,55.3-184,148.6-370,315.9c-296,266.4-378.3,323-515.4,351.9
			c-53.4,11.6-86.9,13.5-208.5,13.5c-79.8,0-202.7-3.9-273.4-9c-159.6-10.9-754.7-11.6-913.6-0.6
			C4797.1,8145.7,4619.6,8149.6,4550.7,8143.8z"/>
	</g>
	<g transform="translate(0.000000,1445.000000) scale(0.100000,-0.100000)">
		<path class="st16" d="M2942.9,12497.7c-91.4-290.8-148.6-541.1-189.8-825.5c-26.4-182.1-45.7-424.6-45.7-573.3v-77.2l79.1-30.9
			c290.8-113.9,568.8-296.6,816.5-537.2l97.2-93.9l-4.5,41.8c-16.7,162.1-9.7,355.8,18.7,525c70.1,416.3,267,799.1,574.6,1116.3
			l79.8,82.4l-63.7,29.6c-170.5,80.4-530.8,207.8-851.2,302.4c-149.9,44.4-467.1,131.9-476.8,131.9
			C2974.4,12589,2958.9,12547.8,2942.9,12497.7z"/>
	</g>
</g>
</svg>
