<?xml version="1.0" encoding="utf-8"?>
<!-- Generator: Adobe Illustrator 25.2.3, SVG Export Plug-In . SVG Version: 6.00 Build 0)  -->
<svg version="1.1" id="Layer_1" xmlns="http://www.w3.org/2000/svg" xmlns:xlink="http://www.w3.org/1999/xlink" x="0px" y="0px"
	 viewBox="0 0 1080 1080" style="enable-background:new 0 0 1080 1080;" xml:space="preserve">
<style type="text/css">
	.st0{fill:#FFFFFF;}
	.st1{fill:#E23137;}
	.st2{fill:#004980;}
	.st3{fill-rule:evenodd;clip-rule:evenodd;fill:#A2192E;}
	.st4{fill:#B01217;}
	.st5{fill:#FBF6F6;}
	.st6{fill:#001B3E;}
	.st7{clip-path:url(#SVGID_2_);fill:#CC004D;}
	.st8{clip-path:url(#SVGID_2_);}
	.st9{clip-path:url(#SVGID_4_);fill:#FFFFFF;}
	.st10{fill:#E2007E;}
	.st11{fill:#004451;}
	.st12{fill:#E41124;}
	.st13{fill:#CA1432;}
	.st14{clip-path:url(#SVGID_6_);fill:#BD1729;}
	.st15{fill:#FF0909;}
	.st16{fill:#0381FF;}
	.st17{fill:#002385;}
	.st18{fill:#00583C;}
	.st19{fill:#FDFDFD;}
	.st20{fill:#00FE00;}
	.st21{fill:#1D1F1B;}
	.st22{fill:#FEFEFE;}
	.st23{fill:#113B65;}
	.st24{fill:#F2CE31;}
</style>
<g>
	<circle class="st23" cx="540" cy="540" r="411.1"/>
	<path class="st24" d="M927.3,542.6c-2.8,104-39.9,193.7-112.1,268.9c-63.1,65.6-142.6,104.9-230,113.9
		C466.4,937.7,357.6,902.9,270,816.7c-78.8-77.6-118.2-172.6-117.3-282.8c1.8-203.3,164.8-378.3,383-381.7
		C751.6,148.9,925.2,323,927.3,542.6z M690.1,328c-40.5-37-121.2-57.7-180.5-46.1c-46.6,9.1-81.7,34.7-100.4,78.5
		c-27.7,64.9-23.4,148.8,68.4,185.3c15.2,6,30.4,12.1,45.4,18.5c12.2,5.2,24.8,9.9,35.6,17.9c18.6,13.7,25.2,32.1,19,52.7
		c-5.8,19.3-23.7,33.3-44.6,34.6c-18.6,1.2-36.1-2.5-52.6-11.4c-19.3-10.4-35.9-24.1-51.8-40.9c-20.6,26.7-40.1,52-59.3,76.9
		c56.4,72.7,164.1,98.5,248,59.8c60.9-28.2,92.3-76.2,93.9-143.5c1.6-67.2-33.2-109-92.7-133.8c-6.7-2.8-13.4-5.6-20.1-8.3
		c-18.5-7.6-37.7-13.4-54.9-23.9c-19.6-12-26.1-26.1-20.2-43.5c6.8-20.3,25.3-31.4,46.8-29.2c25.3,2.6,45.7,15,64.7,31.2
		C653.4,377.6,671.4,353.3,690.1,328z"/>
	<path class="st23" d="M690.1,328c-18.7,25.3-36.8,49.7-55.3,74.7c-19.1-16.2-39.5-28.6-64.7-31.2c-21.5-2.2-40,9-46.8,29.2
		c-5.9,17.4,0.6,31.6,20.2,43.5c17.2,10.5,36.4,16.3,54.9,23.9c6.7,2.8,13.4,5.6,20.1,8.3c59.5,24.8,94.3,66.6,92.7,133.8
		c-1.6,67.3-33,115.4-93.9,143.5c-83.9,38.8-191.6,13-248-59.8c19.2-24.9,38.7-50.2,59.3-76.9c15.9,16.8,32.5,30.5,51.8,40.9
		c16.5,8.9,34,12.6,52.6,11.4c20.9-1.3,38.8-15.4,44.6-34.6c6.2-20.7-0.4-39-19-52.7c-10.8-8-23.4-12.7-35.6-17.9
		c-15-6.4-30.2-12.5-45.4-18.5c-91.8-36.5-96.1-120.4-68.4-185.3c18.7-43.8,53.8-69.4,100.4-78.5C568.9,270.3,649.6,291,690.1,328z"
		/>
</g>
</svg>
