<?xml version="1.0" encoding="utf-8"?>
<!-- Generator: Adobe Illustrator 25.2.3, SVG Export Plug-In . SVG Version: 6.00 Build 0)  -->
<svg version="1.1" id="Layer_1" xmlns="http://www.w3.org/2000/svg" xmlns:xlink="http://www.w3.org/1999/xlink" x="0px" y="0px"
	 viewBox="0 0 1080 1080" style="enable-background:new 0 0 1080 1080;" xml:space="preserve">
<style type="text/css">
	.st0{fill:#FFFFFF;}
	.st1{fill:#E23137;}
	.st2{fill:#004980;}
	.st3{fill-rule:evenodd;clip-rule:evenodd;fill:#A2192E;}
	.st4{fill:#B01217;}
	.st5{fill:#FBF6F6;}
	.st6{fill:#001B3E;}
	.st7{clip-path:url(#SVGID_2_);fill:#CC004D;}
	.st8{clip-path:url(#SVGID_2_);}
	.st9{clip-path:url(#SVGID_4_);fill:#FFFFFF;}
	.st10{fill:#E2007E;}
	.st11{fill:#004451;}
	.st12{fill:#E41124;}
	.st13{fill:#CA1432;}
	.st14{clip-path:url(#SVGID_6_);fill:#BD1729;}
	.st15{fill:#FF0909;}
	.st16{fill:#0381FF;}
	.st17{fill:#002385;}
	.st18{fill:#00583C;}
	.st19{fill:#FDFDFD;}
	.st20{fill:#00FE00;}
	.st21{fill:#1D1F1B;}
	.st22{fill:#FEFEFE;}
	.st23{fill:#113B65;}
	.st24{fill:#F2CE31;}
</style>
<g>
	<path class="st3" d="M423.8,761.2c-4.9-3.4-18.4-13.6-26.4-25.2c-8.3-11.9-20.3-28.6-20.3-28.6c7.3-17.4-5.3-33.4-21.3-24.1
		c6.4,0.3,10.1,4.3,8.9,10c-7-8.5-20.4-5.3-22.7,4.9c5.1-3,14.6-1.5,14.7,4.8c-11.1-3.6-19.1,5-17.2,13c4.7-5,14.6-5.8,21,7.7
		c6.8,14.2,20.2,38.9,27.2,48.6c8.1,11.2,23.1,19.2,26.4,20.8C416.2,781.4,419,770.2,423.8,761.2"/>
	<path class="st3" d="M372.9,578.8c2.9-13.6,9.3-31.3,17.3-43.7c-6-3-22.8-10.1-34.6-21.5c-17.4-16.9-36.9-44.4-36.9-44.4
		c7.1-25.8-13.7-42.4-34.1-29.3c8.1,0.1,14.6,4.4,13.9,12.2c-10.6-7.9-27.1-4.2-31.5,9.5c8.3-3.1,17.7-2.9,20.2,4.7
		c-15.9-1-21.4,11.5-19.2,19.9c7.6-6.7,23.9-5.4,28.2,3c11,21.9,37.6,61.5,43.1,67.5C352.6,570.8,372.9,578.8,372.9,578.8"/>
	<path class="st3" d="M221.4,566.9c22.5-6.6,35.3-25.9,35.3-40.3c0-10.6-6.8-16-14.4-16c-16.8,0-8.9,21.2-20.9,21.2
		c-11.9,0-4.1-21.2-20.9-21.2c-7.6,0-14.4,5.4-14.4,16C186.1,541,198.9,560.3,221.4,566.9"/>
	<path class="st3" d="M301.5,779.1c22.5-6.6,35.3-25.9,35.3-40.3c0-10.6-6.8-16-14.4-16c-16.7,0-8.9,21.2-20.9,21.2
		c-11.9,0-4.1-21.2-20.9-21.2c-7.6,0-14.4,5.4-14.4,16C266.2,753.2,279,772.5,301.5,779.1"/>
	<path class="st3" d="M301.5,349.7c22.5-6.6,35.3-25.9,35.3-40.3c0-10.6-6.8-16-14.4-16c-16.7,0-8.9,21.2-20.9,21.2
		c-11.9,0-4.1-21.2-20.9-21.2c-7.6,0-14.4,5.4-14.4,16C266.2,323.8,279,343.1,301.5,349.7"/>
	<path class="st3" d="M420.2,283.4c12.7,0,24.8-8.2,31.7,0.4c-0.1-6.5-4.5-8.5-10.5-8.8c-11.3-0.6-26.4,5.5-31.4-11.5
		c0,0-7.8,6-4.1,13.8C408.1,282,414.1,283.4,420.2,283.4"/>
	<path class="st3" d="M418.6,735.9c13.4,0,22.7-8.6,29.9,0.4c-0.1-6.8-4.8-9-11.1-9.3c-11.9-0.6-24.3,5.8-29.6-12.1
		c0,0-8.2,6.3-4.3,14.6C405.9,734.4,412.2,735.9,418.6,735.9"/>
	<path class="st3" d="M878.5,510.6c-16.8,0-8.9,21.2-20.9,21.2c-11.9,0-4.1-21.2-20.9-21.2c-7.6,0-14.4,5.4-14.4,16
		c0,14.5,12.8,33.8,35.3,40.3c22.5-6.6,35.3-25.9,35.3-40.3C893,516,886.2,510.6,878.5,510.6"/>
	<path class="st3" d="M540.8,455.9c-11.9,0-4.1-21.2-20.9-21.2c-7.6,0-14.4,5.4-14.4,16c0,14.5,12.8,33.8,35.3,40.3
		c22.5-6.6,35.3-25.9,35.3-40.3c0-10.6-6.8-16-14.4-16C544.9,434.6,552.7,455.9,540.8,455.9"/>
	<path class="st3" d="M540.8,242c22.5-6.6,35.3-25.9,35.3-40.3c0-10.6-6.8-16-14.4-16c-16.7,0-8.9,21.2-20.9,21.2
		c-11.9,0-4.1-21.2-20.9-21.2c-7.6,0-14.4,5.4-14.4,16C505.5,216.2,518.3,235.5,540.8,242"/>
	<path class="st3" d="M540.8,668.3c-11.9,0-4.1-21.2-20.9-21.2c-7.6,0-14.4,5.4-14.4,16c0,14.5,12.8,33.8,35.3,40.3
		c22.5-6.6,35.3-25.9,35.3-40.3c0-10.6-6.8-16-14.4-16C544.9,647.1,552.7,668.3,540.8,668.3"/>
	<path class="st3" d="M795.5,722.8c-16.8,0-8.9,21.2-20.9,21.2c-11.9,0-4.1-21.2-20.9-21.2c-7.6,0-14.4,5.4-14.4,16
		c0,14.5,12.8,33.8,35.3,40.3c22.5-6.6,35.3-25.9,35.3-40.3C809.9,728.2,803.1,722.8,795.5,722.8"/>
	<path class="st3" d="M774.6,349.7c22.5-6.6,35.3-25.9,35.3-40.3c0-10.6-6.8-16-14.4-16c-16.8,0-8.9,21.2-20.9,21.2
		c-11.9,0-4.1-21.2-20.9-21.2c-7.6,0-14.4,5.4-14.4,16C739.3,323.8,752.1,343.1,774.6,349.7"/>
	<path class="st3" d="M488.8,240l9.7-18.2l-16.9,6.5l-11.2-13.1l-11.2,13.1l-16.9-6.5L452,240H488.8"/>
	<path class="st3" d="M590.2,850.2c3.3-2.3,34.6-27.6,34.6-27.6c-10.3-7.4-10.6-27.2-5-36.1c-2.1-3.1-5.5-7.4-9-7.4
		c-6.3,0-16,9.7-16,9.7l-1.8-8.1c-1.6,1.4-5.3,5.1-9.1,8.3c-4.6,3.9-9.2,7.2-9.2,7.2c0.1,10.6,2.4,20.8,16.7,25.7l-17.5,17.7
		c-7.5-1.2-14.5,2.1-18.5,5.6c-5.7,5.1-5.7,14.3,0.5,19.8c-0.9-4,1-10.5,7.2-11.5c-3.6,10.4,1.9,17.7,12.5,16.4
		c-4.5-4.4-5.4-11.3-0.1-14.7c-0.1,9.2,10.3,13.7,18.9,7.1C586.3,859.7,586.3,853.2,590.2,850.2"/>
	<path class="st3" d="M487.3,690.7l10.3-19.4l-18,7l-11.9-14l-11.9,14l-18-7l10.3,19.4H487.3"/>
	<path class="st3" d="M360.1,493c3.1,6.1,11.4,8,19.8,8c17.6,0,34.5-10.6,44,0.5c-0.1-8.4-6.3-11.1-14.6-11.5
		c-15.6-0.8-36.7,7.1-43.6-14.9C365.8,475,355,482.8,360.1,493"/>
	<path class="st3" d="M449,408.3L434,424.8l-22.8-8.3l13,23h49.7l13-23l-22.8,8.3L449,408.3"/>
	<path class="st3" d="M574.2,590.6c-9.8,6.6-10.5,21.6,0.9,31.4c-1.8-7-1.6-17.6,7.6-17.8c-8,11.1,3,24.5,18.6,24.7
		c-5.7-6.8-9.4-16.4-0.9-20.1c-2,12.6,16,20.6,29.8,13.1c-12.8-5.7-14-14-7.5-16.1c6.8-2.2,10.9-2.6,23.1-5.8
		c17.6-4.6,36.5-8.4,36.5-8.4c-12-9.3-22.7-22.5-16.1-36.8c-3.1-4.2-13.7-15.6-18.5-15.6c-8.4,0-20.8,14.3-20.8,14.3l-2.8-11.5
		c-7.9,2.9-19.2,12.2-23.7,17.5c-1.6,12.7,17.6,17.8,25.8,21.6l-23.3,7.6C593.3,585.5,580.7,586.3,574.2,590.6"/>
	<path class="st3" d="M431.9,463.6c-4,0-6.3-2.6-6.3-8.3h21.8C447.4,455.3,438.4,463.6,431.9,463.6z M823.9,596.4
		c0,0-8.6-4.8-22.7-19.8c-14.9-15.8-20.7-33.1-20.7-33.1c-28.3,0.7-46.1-24.7-56-35.9l0.1,0c8.1,0.9,23,1.4,29.7,1.4
		c24.5,0,40.2-12.2,40.2-31.3c0-19.5-16-30.3-43.1-30.3c-55.8,0-62.6,6.8-113.1,6.8c-13.1,0-19.9-8-19.9-17.8
		c0-9.8,9.3-16.9,22.1-16.9c35.3,0,53.4,8.5,93.5,8.5c33.9,0,49.1-3.5,69.8-17.9c21.4-14.8,28.1-26,25.4-29.4
		c-2.8-3.4-14.8-0.1-34.2,11.4c-24.6,14.6-29.9,21-58.8,21c-34.3,0-54.3-9.6-97.4-9.6c-23,0-40.7,13-40.7,33.7
		c0,19.4,15.3,33.4,40.2,33.4c50.2,0,59.8-7.1,113.9-7.1c15.3,0,22.7,7.1,22.7,15.3c0,7.4-5.8,14.5-21.1,14.5
		c-31.5,0-50.8-7.4-80.7-7.5l0,0c-0.1,0-0.2,0-0.2,0c-0.1,0-0.2,0-0.4,0l0,0c-63.2,0.3-124.6,45.7-173.9,46.3c0,0,2.4-10.8,0.9-23.7
		c-6.7-6.3-16.3-11-28.6-14c8.4-2.2,18.6-1.2,26.6,1.6c-0.4-3.5-1.2-7.4-2-9.4c-7.6-6.3-17.4-9.3-28.4-11.3
		c6.5-1.9,17.1-2.4,26.1-0.3c-1.5-11.6-12-23.7-19-27l-49.4-0.1c0,0-26.1,3.8-28.9,8c-2.1,3,1.1,18.4,7.8,24.4
		c8-5.2,15.2-6.6,19.6-6.6c6.7,0,9.4,6,9.4,14.6c0,8.6-6,22-14.2,22c-8.8,0-15-2.5-19.7-5.8c-6.2,6.8-5.5,18.4-2,19.4
		c2.3,0.7,12.1,1,18.6-2.2c-16.4,15.6-26.9,43.1-30.7,69.5c0,0-55.2,20.3-95.1,20.2c-12.4-19.2-40.2-18.4-49.2,1.4
		c6.1-4.3,15.5-4.7,19.9,1.5c-18.1,0-26.5,17-15.1,27.8c-1.1-6.6,9.7-14.7,17.9-11.4c-11.1,6.7-8.1,23.6,7.7,29
		c-3.4-10.1,2.6-18.7,15.7-19.9c44.5,5.9,130.8,0.2,173.2-7.6l17-15.8c92.9-18.5,120.1-90.8,165-90.8c15.8,0,26.4,15.2,40.5,28.3
		c9.3,8.6,21.6,15.7,32.3,17.5c14.4,2.5,31,0.9,41.8-0.5l26.2,25.3c-11.3,3.3-15,12-14.5,19.7c0.5,9.1,7.8,16.8,18.5,19.1
		c-3.3-5-5.3-15.5,3.1-19.7c0.1,15.7,13,23.8,27.7,17.3c-8.7-3.9-13.6-12.8-7.6-19.9c4.5,12.6,21.6,16.8,30.6,3.9
		C820,612.4,823.9,596.4,823.9,596.4L823.9,596.4z"/>
	<path class="st3" d="M456.6,259c-2.8,0-4.4-2-4.4-6.3h15.2C467.4,252.7,461.1,259,456.6,259z M719.5,350.1c0,0-6.1-2.9-14.6-14.2
		c-8.8-11.7-11.8-22.7-11.8-22.7c-18.2,1.9-29.3-7.8-34.6-18.1c40.6,4.6,57.8-9.1,57.8-26c0-15.2-11.4-23.1-31.6-23.1
		c-28.5,0-41.7,8.9-75.3,8.9c-11,0-15.4-3.5-15.4-9.1s4.5-9.3,11.9-9.3c17.9,0,29.8,2.2,42,1.3c7.3-0.5,14.7-2.2,23.5-6
		c15.7-5.8,23.9-16.4,21.8-19.8c-2-3.4-13.5-0.3-27.4,8.2c-5.8,3.5-11.3,5.2-17.1,5.8c-11.3,1.2-24-1.5-43.7-1.5
		c-11.1,0-25.3,5.1-25.3,21.7c0,16.6,14.2,21.6,28.6,21.6c36.3,0,46.5-8.8,75.3-8.8c8.2,0,17.8,2,17.8,10.6
		c0,8.6-9.7,12.9-25.3,12.9c-24.7,0-29.8-4.8-53.5-4.8l0,0c-42.3,0-84.6,29.3-115.6,31.4c0,0,1-7.4,0-18.6
		c-4.5-4.5-10.8-7.9-19.1-9.9c5.6-1.6,12.4-0.9,17.7,1.1c-0.3-2.5-0.8-5.3-1.4-6.7c-5.1-4.5-11.6-6.6-18.9-8
		c4.3-1.3,11.4-1.7,17.4-0.2c-1-8.2-8-16.8-12.7-19.2l-38.3,0c0,0-18.6,2.7-20.5,5.7c-1.4,2.2,0.7,13.1,5.2,17.4
		c5.4-3.7,11.3-4.7,14.3-4.7c4.5,0,6.2,4.3,6.2,10.4c0,6.1-2.8,14.1-8.2,14.1c-6.5,0-11.2-1.8-14.3-4.1c-4.1,4.8-3.7,14.9-1.3,15.6
		c1.6,0.5,7.9,1.1,12.2-1.2c-10.9,11.1-17.8,32.8-20.3,51.6c0,0-31.5,14.2-73.2,19c-9-13.1-27.4-11.4-32.6,2.9
		c3.9-3.3,10.2-3.9,13.3,0.3c-12,0.7-16.1,13.2-8.9,20.3c-0.4-6.1,5.9-10.8,11.4-8.7c-7.1,5.1-4.4,17.1,6.3,20.3
		c-2.7-7.2,1.2-13.8,10.3-14.9v0c44.2,0.2,101.7-5.7,127.6-13.2l11.3-11.3c76.3-16.1,82.5-57.1,112.4-57.1c10.5,0,16.3,7,25.7,16.3
		c6.2,6.1,13,9,20.2,9.6c8.7,0.8,20.1-0.9,27.1-1.8l16,18.2c-7.3,2.9-9.4,9.3-8.7,14.7c0.8,6.4,6,11.5,13.2,12.6
		c-2.4-3.4-4.3-10.7,1.1-14.1c0.8,11.2,9.8,16.2,19.2,10.8c-6-2.3-9.6-8.4-6-13.7c3.6,8.7,15.2,10.8,20.5,1.1
		C717.6,361.6,719.5,350.1,719.5,350.1L719.5,350.1z"/>
	<path class="st3" d="M452.5,709.6c-2.9,0-4.5-2-4.5-6.3h15.6C463.5,703.3,457,709.6,452.5,709.6z M729,810.7c0,0-7.2-5.5-16.2-14.7
		c-8.6-8.8-15.1-19.2-15.1-19.2c-16,4.7-30.8-21.1-32.9-24.9c0.6,0.1,1.2,0.2,1.8,0.3c40.5,5.7,53.6-8.4,53.6-23.9
		c0-15.4-11.4-23.7-31.6-23.7c-28.5,0-35.4,3.6-69.1,3.6c-11,0-15.4-4.1-15.4-10.3c0-6.2,5.9-9.4,13.3-9.4c16.3,0,42.9,4,67.6,2.6
		c20.8-1.1,31.5-5.5,43.7-13.2c13.7-8.6,16.8-18.4,15.1-20.4c-1.2-1.3-7.6-2.1-24.4,9.6c-11.8,8.2-18.7,11.4-35,12.5
		c-19.9,1.3-43.3-3.3-68-3.3c-11.2,0-26.7,5.1-26.7,21.7c0,16.6,14.2,22.8,28.6,22.8c36.3,0,40.3-3.5,69.1-3.5
		c8.2,0,17.8,2.2,17.8,10.4s-7.3,11.4-18.1,11.4c-15.1,0-25.6-2-36.1-3.5c-6.4-1.1-14.2-2-24.3-2c-44,0-83.6,24.2-122.3,27.1
		c0,0,1.4-9.5,0-18.1c-4.6-4.7-11.3-8.2-19.8-10.3c5.8-1.6,12.9-0.9,18.5,1.2c-0.3-2.6-0.8-5.5-1.4-7c-5.3-4.7-12.1-6.9-19.7-8.3
		c4.5-1.4,12.4-1.4,18.7,0.2c-1.6-8.4-8.9-18-13.8-20.4l-39.7-0.1c0,0-19.2,2.8-21.1,5.9c-1.4,2.3,0.8,13.6,5.4,18.1
		c5.6-3.9,11.6-4.9,14.7-4.9c4.6,0,6.5,4.5,6.5,10.8s-2.9,14.6-8.6,14.6c-7.3,0-11.6-1.9-14.8-4.3c-4.3,5-3.9,13.7-1.4,14.4
		c3,0.9,9.5,0.7,14-1.6c-11.3,11.6-15.4,30.5-18,50.1c0,0-34.2,2.7-63.2,3.2c-7.8-15.2-29.2-13.6-32.3,0.4c4.2-3.2,10.8-3.5,13.8,1
		c-12.6,0.1-17.4,13-10.3,20.7c-0.8-4.9,6.7-11,12.4-8.5c-7.7,5-5.5,17.5,5.5,21.4c-2.5-7.7,1.9-14.2,11.4-14.9
		c28.6,6.8,82.6,9.3,117.7,6.6l11.8-11.7c86-16.9,89.9-53,114.4-53c10.1,0,16.1,5.3,23.9,14c7,7.8,16,16.1,24.3,17
		c8.8,1,16.7,0.5,29.2-1l19.6,19.4c-7.4,3.7-9.6,9.6-8.8,15.6c0.8,6.3,6.4,11.8,13.5,12.9c-2.5-3.5-4.5-11,1.2-14.6
		c0.8,11.6,10.3,16.8,20.1,11.1c-6.2-2.4-10.4-8.4-6.6-14c3.8,9,17.1,10.5,22.4-0.6C729,827.6,729,810.7,729,810.7L729,810.7z"/>
	<path class="st3" d="M425.2,313.9c-5.4-2.5-18.4-8.6-26-19.6c-8.3-11.9-18.5-26.8-18.5-26.8c7.3-17.4-5.3-33.4-21.3-24.1
		c6.4,0.3,10.1,4.3,8.9,10c-7-8.5-20.4-5.3-22.7,4.9c5.1-3,14.6-1.5,14.7,4.8c-11.1-3.6-19.1,5-17.2,13c4.7-5,14.6-5.8,21,7.7
		c6.8,14.2,20.5,36,27.2,45c5.5,7.3,15.8,14.9,23.5,17.5C416.9,335.2,420.4,323.6,425.2,313.9"/>
	<path class="st3" d="M425.2,313.9c-5.4-2.5-18.4-8.6-26-19.6c-8.3-11.9-18.5-26.8-18.5-26.8c7.3-17.4-5.3-33.4-21.3-24.1
		c6.4,0.3,10.1,4.3,8.9,10c-7-8.5-20.4-5.3-22.7,4.9c5.1-3,14.6-1.5,14.7,4.8c-11.1-3.6-19.1,5-17.2,13c4.7-5,14.6-5.8,21,7.7
		c6.8,14.2,20.6,35.9,27.2,45"/>
	<path class="st3" d="M581.6,376.6c3.8-2.8,30.2-10.9,45.7-15.8c-8-6.7-13.1-18.9-8.1-29.9c-2.4-2.9-9.2-10.4-13.2-10.4
		c-5.3,0-13.2,10.2-13.2,10.2l-1.8-8.4c-4.9,2.1-11.9,8.5-16.2,12.4c-0.8,8.5,3.1,13.6,15.4,19.1l-22.9,11.5
		c-6.4-2.2-14.8-0.1-19.1,3c-6.5,4.7-8.5,14.3-0.8,21.3c-1.2-5,1.3-12.5,7.5-12.7c-5.4,7.9-0.4,17.4,10,17.6
		c-3.8-4.8-3.8-11.7,1.8-14.3c-1.3,8.9,8.3,14.6,17.4,9.3C575.5,385.3,577.9,379.4,581.6,376.6"/>
	<path class="st3" d="M540,124.1c-229.7,0-415.9,186.2-415.9,415.9S310.3,955.9,540,955.9S955.9,769.7,955.9,540
		S769.7,124.1,540,124.1z M540,149.1c215.6,0,390.9,175.4,390.9,390.9c0,215.6-175.4,390.9-390.9,390.9S149.1,755.6,149.1,540
		C149.1,324.4,324.4,149.1,540,149.1z"/>
</g>
</svg>
